<svg width="29" height="29" viewBox="0 0 29 29" fill="none" xmlns="http://www.w3.org/2000/svg">
<path fill-rule="evenodd" clip-rule="evenodd" d="M7.37305 1.47172C6.83853 0.234768 6.27594 0.209967 5.76744 0.188301C5.35163 0.169771 4.87543 0.170912 4.40006 0.170912C3.92442 0.170912 3.15125 0.356923 2.49762 1.10026C1.84343 1.8436 0 3.64044 0 7.29498C0 10.95 2.55704 14.4813 2.91343 14.9774C3.27023 15.4727 7.84952 23.212 15.1018 26.1895C21.1291 28.6638 22.3556 28.1716 23.6638 28.0479C24.9721 27.924 27.8852 26.2513 28.4798 24.5168C29.0745 22.7825 29.0745 21.296 28.8961 20.9852C28.7177 20.6756 28.242 20.4899 27.5284 20.1185C26.8148 19.747 23.307 17.9497 22.6528 17.7021C21.9988 17.4546 21.523 17.3307 21.0474 18.0743C20.5716 18.8172 19.205 20.4899 18.7887 20.9852C18.3725 21.4817 17.9562 21.5436 17.2426 21.1721C16.529 20.7995 14.231 20.016 11.5049 17.4855C9.3838 15.5167 7.95179 13.0853 7.53543 12.3417C7.11921 11.5988 7.49093 11.1964 7.84883 10.8261C8.16922 10.4933 8.56244 9.95903 8.91924 9.52528C9.27522 9.09154 9.3942 8.78195 9.63202 8.28662C9.86985 7.79059 9.751 7.35685 9.5726 6.98539C9.3942 6.61393 8.00752 2.94043 7.37305 1.47172Z" fill="#2D2D2D"/>
</svg>
