<svg width="32" height="27" viewBox="0 0 32 27" fill="none" xmlns="http://www.w3.org/2000/svg">
<path fill-rule="evenodd" clip-rule="evenodd" d="M25.282 9.91119C23.2706 9.91119 21.5333 11.3283 21.1152 13.3101L21.0801 13.4763C20.9728 13.9854 20.9538 14.5093 21.0242 15.0249L21.266 16.7965C21.1757 16.8076 21.0854 16.819 20.9951 16.8308C19.6045 17.0127 18.564 18.2058 18.564 19.6183V23.2912C18.564 24.7037 19.6045 25.8968 20.9951 26.0787C23.8411 26.451 26.7229 26.451 29.5688 26.0787C30.9594 25.8968 32 24.7037 32 23.2912V19.6183C32 18.2058 30.9594 17.0127 29.5688 16.8308C29.4786 16.819 29.3882 16.8076 29.2979 16.7965L29.5397 15.0249C29.6101 14.5093 29.5912 13.9854 29.4838 13.4763L29.4487 13.3101C29.0306 11.3283 27.2934 9.91119 25.282 9.91119ZM26.9323 16.5928L27.1908 14.6996C27.2238 14.4576 27.2149 14.2117 27.1645 13.9728L27.1294 13.8065C26.9441 12.9278 26.1738 12.2995 25.282 12.2995C24.3902 12.2995 23.6199 12.9278 23.4345 13.8065L23.3994 13.9728C23.349 14.2117 23.3401 14.4576 23.3732 14.6996L23.6316 16.5928C24.7312 16.5378 25.8328 16.5378 26.9323 16.5928ZM21.3005 19.1992C23.9437 18.8535 26.6202 18.8535 29.2635 19.1992C29.4725 19.2266 29.6289 19.4059 29.6289 19.6183V23.2912C29.6289 23.5036 29.4725 23.6829 29.2635 23.7103C26.6202 24.056 23.9437 24.056 21.3005 23.7103C21.0914 23.6829 20.935 23.5036 20.935 23.2912V19.6183C20.935 19.4059 21.0914 19.2266 21.3005 19.1992Z" fill="#3C3C3C"/>
<path d="M16.1929 21.2403C16.1929 20.9746 15.9775 20.76 15.7137 20.7617C12.7997 20.7801 9.88522 20.6845 6.97679 20.4749L4.58358 20.3025C3.77192 20.244 3.10246 19.6396 2.9562 18.8333C2.30869 15.2636 2.19784 11.6161 2.62736 8.01327L3.05808 4.40035C3.1706 3.45653 3.96551 2.74623 4.90925 2.74623H8.53155C9.22713 2.74623 9.79101 3.31421 9.79101 4.01485C9.79101 4.9464 10.5407 5.70157 11.4655 5.70157H25.238C26.1378 5.70157 26.9042 6.36008 27.046 7.25503L27.067 7.38803C27.1056 7.63146 27.2811 7.82807 27.5116 7.91101C28.0674 8.11098 28.5908 8.38391 29.0695 8.71961C29.3078 8.88673 29.6569 8.6992 29.6184 8.4093C29.579 8.11172 29.5357 7.81452 29.4887 7.51776L29.3874 6.87859C29.0619 4.8246 27.303 3.31325 25.238 3.31325L12.0953 3.31325C11.7705 1.62923 10.2984 0.35791 8.53155 0.35791H4.90925C2.76535 0.35791 0.959539 1.9715 0.703927 4.1156L0.273205 7.72851C-0.184663 11.5691 -0.0664947 15.4573 0.623746 19.2625C0.964419 21.1406 2.5238 22.5484 4.41438 22.6847L6.80759 22.8572C9.77563 23.071 12.7499 23.1686 15.7236 23.15C15.9835 23.1483 16.1929 22.9352 16.1929 22.6733V21.2403Z" fill="#3C3C3C"/>
</svg>
