<svg width="24" height="24" viewBox="0 0 24 24" fill="none" xmlns="http://www.w3.org/2000/svg">
<path d="M5.36107 2.86978C3.8116 3.04303 2.57134 4.2665 2.39206 5.79997C1.91049 9.91929 1.91049 14.0807 2.39206 18.2C2.57134 19.7335 3.8116 20.957 5.36107 21.1302C9.39146 21.5809 13.561 21.5809 17.5914 21.1302C19.1409 20.957 20.3812 19.7335 20.5604 18.2C20.9065 15.2402 21.0039 12.2586 20.8526 9.28652C20.8487 9.20977 20.8774 9.13491 20.9317 9.08057L22.3381 7.67352C22.5009 7.51066 22.779 7.61249 22.7963 7.84217C23.0618 11.3706 22.9888 14.9181 22.5776 18.4361C22.2867 20.9243 20.2898 22.8729 17.817 23.1494C13.6367 23.6169 9.3158 23.6169 5.13549 23.1494C2.66272 22.8729 0.665821 20.9243 0.374932 18.4361C-0.124977 14.1599 -0.124977 9.84008 0.374932 5.56395C0.665821 3.07573 2.66272 1.12706 5.13549 0.850564C9.3158 0.383145 13.6367 0.383145 17.817 0.850564C18.6879 0.947945 19.4998 1.25275 20.1989 1.71551C20.3365 1.80656 20.3501 2.00004 20.2335 2.11673L19.1464 3.20426C19.0575 3.29322 18.9196 3.30818 18.8088 3.24876C18.4386 3.05033 18.0272 2.91851 17.5914 2.86978C13.561 2.41912 9.39146 2.41912 5.36107 2.86978Z" fill="black"/>
<path d="M23.7026 3.91393C24.0991 3.5172 24.0991 2.87397 23.7026 2.47724C23.306 2.08051 22.6631 2.08051 22.2665 2.47724L10.7993 13.9496L7.45553 10.6044C7.05897 10.2077 6.41603 10.2077 6.01948 10.6044C5.62292 11.0011 5.62292 11.6444 6.01948 12.0411L10.0812 16.1047C10.4778 16.5014 11.1207 16.5014 11.5173 16.1047L23.7026 3.91393Z" fill="black"/>
</svg>
