<svg width="33" height="26" viewBox="0 0 33 26" fill="none" xmlns="http://www.w3.org/2000/svg">
<path d="M0 9.09894C0 4.44291 4.00932 0.85791 8.71538 0.85791C11.1413 0.85791 13.2759 2.01677 14.8077 3.51624C16.3395 2.01677 18.4741 0.85791 20.9 0.85791C25.6061 0.85791 29.6154 4.44291 29.6154 9.09894C29.6154 9.37889 29.6051 9.65588 29.5851 9.92988C29.5659 10.1918 29.3478 10.3886 29.09 10.3886H27.5715C27.2609 10.3886 27.0243 10.1068 27.0494 9.79139C27.0676 9.56211 27.0769 9.3313 27.0769 9.09894C27.0769 6.0805 24.4187 3.44412 20.9 3.44412C18.8791 3.44412 16.9921 4.67416 15.8139 6.23536C15.5736 6.5537 15.2018 6.74026 14.8077 6.74026C14.4135 6.74026 14.0418 6.5537 13.8015 6.23536C12.6233 4.67416 10.7363 3.44412 8.71538 3.44412C5.19666 3.44412 2.53846 6.0805 2.53846 9.09894C2.53846 11.5188 3.54672 13.7717 5.17185 15.8548C6.80017 17.9421 8.9911 19.7836 11.2043 21.3458C12.0418 21.9369 12.8306 22.4398 13.5054 22.7899C14.23 23.1659 14.6497 23.2717 14.8077 23.2717C14.9656 23.2717 15.3854 23.1659 16.11 22.7899C16.7847 22.4398 17.5736 21.9369 18.4111 21.3458C19.1319 20.837 19.8505 20.2985 20.5479 19.7316C20.7942 19.5314 21.1592 19.5987 21.3158 19.8772L22.0802 21.2364C22.2041 21.4568 22.1528 21.7367 21.957 21.8939C21.2598 22.4537 20.5535 22.9798 19.8566 23.4717C18.9734 24.0951 18.0798 24.6702 17.262 25.0945C16.4941 25.4929 15.6111 25.8579 14.8077 25.8579C14.0043 25.8579 13.1213 25.4929 12.3534 25.0945C11.5356 24.6702 10.642 24.0951 9.75875 23.4717C7.44624 21.8395 5.03101 19.8308 3.18462 17.464C1.33503 15.0932 0 12.2884 0 9.09894Z" fill="#3C3C3C"/>
<path d="M21.25 8.50879C21.0679 8.10398 20.6941 7.82312 20.2607 7.76538C19.8273 7.70765 19.3953 7.88117 19.1171 8.22466L15.6196 12.5437H13.1154C12.4144 12.5437 11.8462 13.1227 11.8462 13.8368C11.8462 14.551 12.4144 15.1299 13.1154 15.1299H16.218C16.5968 15.1299 16.9559 14.9575 17.197 14.6598L19.7862 11.4622L22.8205 18.207C23.0027 18.6118 23.3764 18.8927 23.8098 18.9504C24.2432 19.0082 24.6753 18.8347 24.9534 18.4912L27.6752 15.1299H31.7308C32.4317 15.1299 33 14.551 33 13.8368C33 13.1227 32.4317 12.5437 31.7308 12.5437H27.0769C26.698 12.5437 26.339 12.7162 26.0979 13.0139L24.2843 15.2536L21.25 8.50879Z" fill="#3C3C3C"/>
</svg>
