<svg width="150" height="68" viewBox="0 0 150 68" fill="none" xmlns="http://www.w3.org/2000/svg">
<g clip-path="url(#clip0_1_1094)">
<path d="M142.813 27.8302H149.675C148.807 21.1759 143.93 17.6782 137.15 17.6782C130.288 17.6782 125.7 21.3039 125.7 27.5316C125.7 34.6124 131.611 36.1905 134.753 36.8306C138.804 37.641 142.772 37.7263 142.772 41.3092C142.772 43.7406 140.788 44.935 137.977 44.935C134.505 44.935 132.19 43.1434 131.611 39.9018H124.832C125.245 46.8972 130.165 50.6508 137.398 50.6508C144.095 50.6508 149.592 47.4944 149.592 40.6695C149.592 33.3327 143.268 32.0105 138.845 31.3279C135.827 30.8588 132.521 30.4322 132.521 27.1477C132.521 24.8443 134.215 23.4368 137.068 23.4368C140.375 23.4368 142.359 25.3563 142.813 27.8302Z" fill="#242424"/>
<path d="M121.08 18.7451H114.59V49.6701H121.08V18.7451Z" fill="#242424"/>
<path d="M94.9921 38.878H103.466C102.143 42.2053 99.167 43.7832 95.7361 43.7832C89.7011 43.7832 86.8903 38.9633 86.8903 34.1859C86.8903 29.3658 89.5357 24.4605 95.6949 24.4605C99.4565 24.4605 102.267 26.252 103.342 29.4511L110.328 29.4512C109.129 22.2425 103.011 18.105 95.7776 18.105C86.8489 18.105 80.1523 24.3751 80.1523 34.2712C80.1523 44.2952 87.4274 50.2243 95.7361 50.2243C103.921 50.2243 110.328 44.7218 110.328 36.1055V33.5887H94.9921V38.878Z" fill="#242424"/>
<path d="M65.3113 18.105C57.8707 18.105 52.3729 22.9249 52.4143 30.9441H59.1108C59.0281 27.4464 61.1775 24.2473 64.9805 24.2473C68.2875 24.2473 70.2303 26.636 70.2303 29.3658C70.2303 32.0958 68.2875 33.6314 64.6912 35.2951C59.7721 37.5557 56.2586 39.006 52.6623 40.2857V49.6698H77.7122V43.3568H60.5152C60.5152 43.3568 60.5724 43.3383 60.6006 43.3295C63.5256 42.415 65.723 41.4213 68.3289 40.243C73.9092 37.6838 77.0921 34.4845 77.0921 29.0247C77.0921 22.3277 72.2971 18.105 65.3113 18.105Z" fill="#242424"/>
<path d="M34.8101 38.7932C26.3774 38.8359 25.0134 44.0825 24.5587 48.5186L24.3521 50.4807H22.6572L22.4505 48.5186C21.9959 44.0825 20.5905 38.8359 12.4471 38.7932C11.083 35.8925 10.5043 33.5465 10.5043 30.9019C10.5043 24.2904 15.7541 18.1052 23.5252 18.1052C31.2965 18.1052 36.4635 24.2476 36.4635 30.9448C36.4635 33.5465 36.2155 35.8925 34.8101 38.7932ZM23.4427 10.086C10.6285 10.086 0.128906 20.9206 0.128906 34.1862C0.128906 47.4948 10.6285 58.3292 23.4427 58.3292C36.3808 58.3292 46.839 47.4948 46.839 34.1862C46.839 20.9206 36.3808 10.086 23.4427 10.086Z" fill="#29B24A"/>
</g>
<defs>
<clipPath id="clip0_1_1094">
<rect width="149.546" height="67.5405" fill="white" transform="translate(0.128906 0.437378)"/>
</clipPath>
</defs>
</svg>
