<svg width="238" height="80" viewBox="0 0 238 80" fill="none" xmlns="http://www.w3.org/2000/svg">
<g clip-path="url(#clip0_701_267)">
<path fill-rule="evenodd" clip-rule="evenodd" d="M35.5315 43.607C33.8907 39.1917 32.1945 35.122 30.454 31.4091C29.4229 33.4049 28.3254 35.8244 27.1835 38.6788C26.5294 40.3289 25.9086 41.968 25.321 43.607H35.5315ZM42.6599 53.1512C42.7486 53.3854 42.793 53.6307 42.793 53.8648C42.793 55.1136 42.1721 55.738 40.9305 55.738C40.0547 55.738 39.4671 55.3143 39.1789 54.4669C38.5026 52.1032 37.5492 49.2265 36.3186 45.8147H24.545C23.2701 49.561 22.4386 52.4823 22.0284 54.545C21.8732 55.3366 21.3965 55.738 20.5983 55.738C19.6005 55.738 19.1016 55.2363 19.1016 54.2328L19.1571 53.8202C19.8777 51.3896 20.2768 50.0627 20.3322 49.8397C20.9419 48.0781 21.6847 46.06 22.5605 43.7742C23.6359 40.8864 24.6891 38.2774 25.709 35.9582C26.1968 34.8321 26.729 33.639 27.2833 32.3791C28.0372 30.7066 28.6912 29.4244 29.2123 28.5436C29.9218 27.3394 30.465 26.7373 30.842 26.7373C31.5182 26.7373 32.2943 27.607 33.1479 29.3575C36.8286 36.8836 39.9882 44.8223 42.6599 53.1512Z" fill="white"/>
<path fill-rule="evenodd" clip-rule="evenodd" d="M61.8503 51.9359C63.103 51.9359 63.7239 52.5714 63.7239 53.8425C63.7239 55.1024 63.103 55.738 61.8503 55.738H46.396C45.2652 55.738 44.6998 55.1582 44.6998 54.0098V28.8557C44.6998 27.7185 45.2652 27.1387 46.396 27.1387C47.5268 27.1387 48.0922 27.7073 48.0922 28.8557L48.1144 50.5979C48.1144 51.947 48.325 52.7721 48.7574 53.062C49.3339 53.4523 50.9747 53.653 53.6797 53.653C55.8859 53.653 57.4712 53.5192 58.4468 53.2627C59.1674 53.062 60.0543 52.6829 61.1186 52.1143C61.3625 51.9916 61.5953 51.9359 61.8503 51.9359Z" fill="white"/>
<path fill-rule="evenodd" clip-rule="evenodd" d="M82.7147 51.9359C83.9674 51.9359 84.5882 52.5714 84.5882 53.8425C84.5882 55.1024 83.9674 55.738 82.7147 55.738H67.2604C66.1296 55.738 65.5642 55.1582 65.5642 54.0098V28.8557C65.5642 27.7185 66.1296 27.1387 67.2604 27.1387C68.3912 27.1387 68.9566 27.7073 68.9566 28.8557L68.9788 50.5979C68.9788 51.947 69.1894 52.7721 69.6218 53.062C70.1983 53.4523 71.839 53.653 74.5441 53.653C76.7503 53.653 78.3356 53.5192 79.3112 53.2627C80.0318 53.062 80.9187 52.6829 81.983 52.1143C82.2269 51.9916 82.4597 51.9359 82.7147 51.9359Z" fill="white"/>
<path fill-rule="evenodd" clip-rule="evenodd" d="M109.033 50.6312C109.089 50.9099 109.111 51.0883 109.111 51.1441C109.111 51.3559 109.078 51.5455 109.011 51.7239C108.945 51.9023 108.812 52.1253 108.623 52.404C108.324 52.8389 107.692 53.3295 106.728 53.8758C105.63 54.489 104.366 54.9796 102.936 55.3587C101.229 55.827 99.4993 56.05 97.7587 56.05C93.557 56.05 90.1646 54.7901 87.5705 52.2814C84.9652 49.7727 83.6681 46.4946 83.6681 42.4472C83.6681 37.9427 85.065 34.2521 87.8587 31.3643C90.6635 28.4876 94.2444 27.0493 98.5791 27.0493C99.9649 27.0493 101.284 27.1943 102.559 27.4842C103.823 27.7629 104.876 28.1643 105.73 28.6995C106.306 29.034 106.783 29.4242 107.171 29.9037C107.47 30.2159 107.626 30.595 107.626 31.0298C107.626 32.1113 107.093 32.6465 106.018 32.6465C105.575 32.6465 105.187 32.4904 104.876 32.1782C104.255 31.4089 103.446 30.7511 102.437 30.1824C101.129 29.4577 99.721 29.0897 98.18 29.0897C95.8852 29.0897 93.8785 29.8033 92.1713 31.2305C90.6746 32.5016 89.5106 34.2187 88.668 36.404C87.9252 38.3887 87.5483 40.4737 87.5483 42.6702C87.5483 45.926 88.6347 48.6354 90.7966 50.8319C92.9806 53.0396 95.6302 54.1322 98.7565 54.1322C101.129 54.1322 102.881 53.6305 103.989 52.627C105.109 51.6124 105.663 49.9845 105.663 47.7545C105.663 45.6026 105.486 44.3315 105.131 43.9413C105.02 43.8075 104.821 43.696 104.566 43.6068H100.552C99.7986 43.6068 99.4328 43.2166 99.4328 42.4584C99.4328 41.7113 99.7986 41.3322 100.552 41.3322H107.204C108.302 41.3322 108.856 41.8897 108.856 42.9936L108.934 49.8284C108.934 50.096 108.978 50.3636 109.033 50.6312Z" fill="white"/>
<path fill-rule="evenodd" clip-rule="evenodd" d="M129.288 51.9359C130.541 51.9359 131.162 52.5714 131.162 53.8425C131.162 55.1024 130.541 55.738 129.288 55.738H113.845C112.714 55.738 112.149 55.1582 112.149 54.0098V28.8557C112.149 27.7185 112.714 27.1387 113.845 27.1387C114.976 27.1387 115.541 27.7073 115.541 28.8557L115.563 50.5979C115.563 51.947 115.774 52.7721 116.206 53.062C116.783 53.4523 118.424 53.653 121.129 53.653C123.335 53.653 124.92 53.5192 125.896 53.2627C126.616 53.062 127.503 52.6829 128.567 52.1143C128.789 51.9916 129.033 51.9359 129.288 51.9359Z" fill="white"/>
<path fill-rule="evenodd" clip-rule="evenodd" d="M148.279 43.607C146.638 39.1917 144.942 35.122 143.201 31.4091C142.17 33.4049 141.073 35.8244 139.931 38.6788C139.277 40.3289 138.656 41.968 138.068 43.607H148.279ZM155.407 53.1512C155.496 53.3854 155.54 53.6307 155.54 53.8648C155.54 55.1136 154.92 55.738 153.678 55.738C152.802 55.738 152.214 55.3143 151.926 54.4669C151.25 52.1032 150.297 49.2265 149.066 45.8147H137.292C136.017 49.561 135.186 52.4823 134.776 54.545C134.621 55.3366 134.144 55.738 133.346 55.738C132.348 55.738 131.849 55.2363 131.849 54.2328L131.904 53.8202C132.625 51.3896 133.024 50.0627 133.08 49.8397C133.689 48.0781 134.432 46.06 135.308 43.7742C136.383 40.8864 137.436 38.2774 138.456 35.9582C138.944 34.8321 139.476 33.639 140.031 32.3791C140.785 30.7066 141.439 29.4244 141.96 28.5436C142.669 27.3394 143.212 26.7373 143.589 26.7373C144.266 26.7373 145.042 27.607 145.895 29.3575C149.576 36.8836 152.747 44.8223 155.407 53.1512Z" fill="white"/>
<path fill-rule="evenodd" clip-rule="evenodd" d="M172.968 51.055C175.363 48.903 176.56 45.7476 176.56 41.5665C176.56 39.2919 176.249 37.3518 175.629 35.7239C174.853 33.7393 173.622 32.2117 171.948 31.1302C169.997 29.9037 167.414 29.2905 164.232 29.2905C162.813 29.2905 161.915 29.5358 161.527 30.0375C161.095 30.6062 160.862 31.8773 160.817 33.8619V50.4083C160.862 51.7574 161.128 52.6494 161.627 53.0954C162.17 53.5748 163.267 53.809 164.93 53.809C168.245 53.8201 170.928 52.8947 172.968 51.055ZM176.471 31.186C179.143 33.7616 180.484 37.3184 180.484 41.8563C180.484 46.2605 179.043 49.6835 176.139 52.1588C173.356 54.5448 169.598 55.7379 164.853 55.7379H159.132C158.001 55.7379 157.436 55.1581 157.436 54.0097V29.0563C157.436 27.9748 157.968 27.4062 159.033 27.3504L165.385 27.3281C170.086 27.3281 173.777 28.6104 176.471 31.186Z" fill="white"/>
<path fill-rule="evenodd" clip-rule="evenodd" d="M203.644 53.4856C203.688 53.6529 203.699 53.8201 203.699 53.9539C203.699 55.1469 203.112 55.7379 201.948 55.7379C201.116 55.7379 200.573 55.3365 200.296 54.5337L200.24 54.2996C199.021 49.9957 196.282 45.6138 192.025 41.1316C191.338 41.8117 190.484 42.6368 189.487 43.5623C188.866 44.1421 188.189 44.7553 187.48 45.402L187.458 54.2438C187.314 55.2361 186.748 55.7267 185.784 55.7267C184.653 55.7267 184.088 55.1469 184.088 53.9985V29.0563C184.088 27.9079 184.653 27.3281 185.784 27.3281C186.915 27.3281 187.48 27.9079 187.48 29.0563V42.4138C191.172 39.1023 195.262 34.3079 199.741 28.0194L199.919 27.7853C200.163 27.4842 200.506 27.3281 200.928 27.3281C201.837 27.3281 202.302 27.7964 202.302 28.7553C202.302 29.1567 202.158 29.5023 201.87 29.7811C198.821 33.6612 196.294 36.6494 194.276 38.7232C195.928 40.4626 197.557 42.4584 199.143 44.6996C201.238 47.7212 202.746 50.6424 203.644 53.4856Z" fill="white"/>
<path fill-rule="evenodd" clip-rule="evenodd" d="M216.692 53.898C219.907 53.898 222.357 52.6492 224.031 50.1517C225.484 47.9663 226.215 45.0897 226.215 41.5329C226.215 37.7308 225.373 34.7203 223.699 32.4792C222.003 30.2381 219.73 29.112 216.87 29.112C214.63 29.112 212.757 29.7363 211.26 30.9963C209.918 32.1224 208.932 33.6611 208.267 35.6235C207.679 37.3851 207.38 39.3475 207.38 41.5217C207.38 45.2458 208.233 48.2339 209.941 50.4973C211.626 52.7719 213.876 53.898 216.692 53.898ZM216.692 27.0381C220.628 27.0381 223.843 28.3872 226.337 31.0743C228.832 33.7614 230.084 37.2625 230.084 41.544C230.084 45.7921 228.843 49.2708 226.359 51.9802C223.876 54.6897 220.694 56.0388 216.803 56.0388C212.923 56.0388 209.752 54.6785 207.258 51.9579C204.763 49.2374 203.511 45.7698 203.511 41.544C203.511 37.3071 204.752 33.8283 207.213 31.1078C209.663 28.3872 212.834 27.0381 216.692 27.0381Z" fill="white"/>
<path fill-rule="evenodd" clip-rule="evenodd" d="M237.745 33.7619C237.911 34.0295 238 34.2302 238 34.3974C238 34.4866 237.978 34.5647 237.922 34.6316C237.789 34.7765 237.623 34.8434 237.435 34.8434C237.169 34.8434 236.869 34.6985 236.503 34.4086C236.426 34.3417 234.718 32.9926 231.37 30.3724C230.373 29.6588 229.874 29.0232 229.874 28.4546C229.874 28.1424 230.018 27.8413 230.328 27.5626C230.528 27.3954 231.16 27.3062 232.224 27.3062C233 27.3062 234.84 29.4581 237.745 33.7619Z" fill="white"/>
<path fill-rule="evenodd" clip-rule="evenodd" d="M52.1941 2.00715C67.2493 6.97997 77.3489 20.1368 79.2336 34.9549C77.1272 21.6977 67.9034 10.0573 54.3338 5.57509C35.0104 -0.824907 14.1793 9.75628 7.8269 29.2016C1.47447 48.6469 11.9953 69.5863 31.3298 75.9751C46.6732 81.0483 62.97 75.4176 72.2049 63.1528C62.3824 77.0789 44.334 83.6016 27.3609 77.9821C6.49655 71.1026 -4.85579 48.5019 1.99552 27.518C8.85792 6.53398 31.3298 -4.88344 52.1941 2.00715Z" fill="white"/>
<path fill-rule="evenodd" clip-rule="evenodd" d="M80.187 68.9951C79.5662 69.1847 79.0673 69.2739 78.7014 69.2739C77.8921 69.2739 77.238 69.0174 76.7503 68.5269C76.2625 68.0251 76.0186 67.3561 76.0186 66.531C76.0186 65.6948 76.2514 64.9924 76.7281 64.4349C77.2048 63.8774 77.8589 63.5986 78.6793 63.5986C79.1671 63.5986 79.6327 63.6878 80.0761 63.8774V64.5129C79.5883 64.2676 79.1338 64.145 78.6903 64.145C78.0473 64.145 77.5374 64.368 77.1715 64.8028C76.8057 65.2488 76.6172 65.7951 76.6172 66.4641C76.6172 67.1443 76.8057 67.6906 77.1826 68.1032C77.5595 68.5157 78.0806 68.7276 78.7458 68.7276C79.1227 68.7276 79.5994 68.6161 80.187 68.4042V68.9951Z" fill="white"/>
<path fill-rule="evenodd" clip-rule="evenodd" d="M85.9962 66.2301H81.7391C81.7391 66.9325 81.9164 67.5123 82.2712 67.9806C82.6592 68.4823 83.1914 68.7276 83.8787 68.7276C84.6215 68.7276 85.2977 68.4489 85.9075 67.9025V68.5492C85.3088 69.0398 84.6104 69.274 83.8344 69.274C83.014 69.274 82.3488 68.9952 81.8499 68.4377C81.3621 67.9025 81.1182 67.2224 81.1182 66.3862C81.1182 65.6057 81.3399 64.9478 81.7834 64.4127C82.2269 63.8775 82.8366 63.6099 83.5905 63.6099C84.3111 63.6099 84.8986 63.8663 85.3421 64.3681C85.7745 64.8698 85.9962 65.4942 85.9962 66.2301ZM85.3088 65.7729C85.0871 64.6802 84.5217 64.1339 83.6126 64.1339C83.147 64.1339 82.7479 64.29 82.4264 64.591C82.1049 64.9032 81.8943 65.2935 81.7945 65.7729H85.3088Z" fill="white"/>
<path fill-rule="evenodd" clip-rule="evenodd" d="M90.8741 64.2675H88.9562V69.1623H88.3686V64.2675H86.4618V63.7212H90.8741V64.2675Z" fill="white"/>
<path fill-rule="evenodd" clip-rule="evenodd" d="M95.3308 67.6124C95.3308 68.6493 94.6878 69.1622 93.3907 69.1622H91.628V63.71H92.2045V66.0737H93.3907C94.6878 66.0849 95.3308 66.5978 95.3308 67.6124ZM94.7321 67.6124C94.7321 66.9546 94.2443 66.6312 93.2798 66.6312H92.2045V68.627H93.2798C93.7344 68.627 94.067 68.5713 94.2776 68.4598C94.588 68.3037 94.7321 68.0249 94.7321 67.6124Z" fill="white"/>
<path fill-rule="evenodd" clip-rule="evenodd" d="M103.756 68.9951C103.136 69.1847 102.637 69.2739 102.271 69.2739C101.462 69.2739 100.807 69.0174 100.32 68.5269C99.8318 68.0251 99.588 67.3561 99.588 66.531C99.588 65.6948 99.8208 64.9924 100.297 64.4349C100.774 63.8774 101.428 63.5986 102.249 63.5986C102.736 63.5986 103.202 63.6878 103.646 63.8774V64.5129C103.158 64.2676 102.703 64.145 102.26 64.145C101.617 64.145 101.107 64.368 100.741 64.8028C100.375 65.2488 100.187 65.7951 100.187 66.4641C100.187 67.1443 100.375 67.6906 100.752 68.1032C101.129 68.5157 101.65 68.7276 102.315 68.7276C102.692 68.7276 103.169 68.6161 103.756 68.4042V68.9951Z" fill="white"/>
<path fill-rule="evenodd" clip-rule="evenodd" d="M108.656 64.2675H106.739V69.1623H106.162V64.2675H104.255V63.7212H108.656V64.2675Z" fill="white"/>
<path fill-rule="evenodd" clip-rule="evenodd" d="M113.712 63.7211L109.654 71.9608H109.067L110.962 68.1141L108.679 63.7211L109.277 63.71L111.262 67.5232L113.113 63.7211H113.712Z" fill="white"/>
<path fill-rule="evenodd" clip-rule="evenodd" d="M119.676 70.991H119.122V69.1735H114.432V70.991H113.878V68.6272H114.388C114.754 68.1032 115.02 67.6237 115.197 67.1889C115.452 66.5422 115.585 65.8732 115.585 65.1819V63.7324H119.1V68.6383H119.687V70.991H119.676ZM118.501 68.616V64.2565H116.151V65.2488C116.151 66.4864 115.774 67.6126 115.02 68.616H118.501Z" fill="white"/>
<path fill-rule="evenodd" clip-rule="evenodd" d="M125.153 69.1623H124.576V64.6689L120.996 69.1623H120.53V63.7212H121.106V68.2592L124.698 63.7212H125.153V69.1623Z" fill="white"/>
<path fill-rule="evenodd" clip-rule="evenodd" d="M130.397 61.8257C130.319 62.6619 129.842 63.0856 128.955 63.0856C128.545 63.0856 128.202 62.9741 127.936 62.7623C127.669 62.5393 127.503 62.2271 127.448 61.8257H128.024C128.069 62.3163 128.379 62.5616 128.955 62.5616C129.443 62.5616 129.732 62.3163 129.853 61.8257H130.397ZM131.239 69.1623H130.663V64.6689L127.082 69.1734H126.627V63.7212H127.204V68.2591L130.785 63.7212H131.239V69.1623Z" fill="white"/>
<path fill-rule="evenodd" clip-rule="evenodd" d="M140.563 69.1622H139.986V64.2563H137.126V66.9546C137.126 68.4932 136.594 69.2626 135.53 69.2626L135.363 68.7943C135.818 68.7497 136.128 68.5713 136.317 68.2814C136.472 68.0472 136.55 67.6793 136.55 67.1887V63.71H140.563V69.1622Z" fill="white"/>
<path fill-rule="evenodd" clip-rule="evenodd" d="M146.294 68.7054C146.017 68.9061 145.84 69.0288 145.762 69.0734C145.529 69.2072 145.341 69.2852 145.197 69.2852C145.031 69.2852 144.92 69.2072 144.875 69.0399C144.853 68.8281 144.831 68.6831 144.82 68.6051C144.243 69.0622 143.689 69.2852 143.135 69.2852C142.725 69.2852 142.381 69.1514 142.093 68.895C141.804 68.6385 141.66 68.304 141.66 67.9026C141.66 67.1779 142.059 66.6538 142.847 66.297C143.423 66.0406 144.077 65.918 144.831 65.918V65.5277C144.831 65.0483 144.776 64.7249 144.665 64.5465C144.498 64.2678 144.155 64.134 143.623 64.134C143.09 64.134 142.547 64.357 141.982 64.7918V64.212C142.192 64.0559 142.459 63.9221 142.769 63.7995C143.09 63.6768 143.368 63.6211 143.612 63.6211C144.809 63.6211 145.408 64.134 145.408 65.1709V68.4824C145.408 68.6385 145.441 68.7166 145.496 68.7166C145.596 68.7166 145.74 68.6608 145.906 68.5493C145.951 68.527 146.084 68.4267 146.317 68.2483V68.7054H146.294ZM144.809 68.0922V66.3862C143.889 66.3862 143.19 66.5758 142.736 66.9549C142.403 67.2336 142.226 67.557 142.226 67.9138C142.226 68.1925 142.337 68.4267 142.558 68.5939C142.758 68.7389 143.013 68.8169 143.301 68.8169C143.778 68.8058 144.277 68.5605 144.809 68.0922Z" fill="white"/>
<path fill-rule="evenodd" clip-rule="evenodd" d="M150.485 67.7242C150.485 68.2706 150.263 68.6831 149.809 68.9507C149.443 69.1737 148.955 69.2741 148.368 69.2741C147.791 69.2741 147.237 69.1403 146.716 68.8727V68.2929C147.314 68.5828 147.88 68.7277 148.412 68.7277C148.8 68.7277 149.121 68.6497 149.387 68.5159C149.709 68.3375 149.875 68.081 149.875 67.7242C149.875 67.3674 149.731 67.0998 149.454 66.9103C149.21 66.743 148.911 66.665 148.534 66.665H147.791V66.1187H148.312C148.623 66.1187 148.911 66.0295 149.166 65.8622C149.454 65.6727 149.598 65.4274 149.598 65.1263C149.598 64.4796 149.188 64.1563 148.368 64.1563C148.09 64.1563 147.824 64.2009 147.569 64.3012C147.403 64.357 147.181 64.4685 146.882 64.6246V64.0782C147.425 63.766 147.957 63.6211 148.501 63.6211C148.988 63.6211 149.376 63.7437 149.687 63.989C150.031 64.2566 150.208 64.6246 150.208 65.0929C150.208 65.6504 149.886 66.0406 149.254 66.2747C150.075 66.4866 150.485 66.966 150.485 67.7242Z" fill="white"/>
<path fill-rule="evenodd" clip-rule="evenodd" d="M156.139 66.2301H151.882C151.882 66.9325 152.059 67.5123 152.414 67.9806C152.802 68.4823 153.334 68.7276 154.022 68.7276C154.764 68.7276 155.441 68.4489 156.05 67.9025V68.5492C155.452 69.0398 154.753 69.274 153.977 69.274C153.157 69.274 152.492 68.9952 151.993 68.4377C151.505 67.9025 151.261 67.2224 151.261 66.3862C151.261 65.6057 151.483 64.9478 151.926 64.4127C152.37 63.8775 152.979 63.6099 153.733 63.6099C154.454 63.6099 155.041 63.8663 155.485 64.3681C155.928 64.8698 156.139 65.4942 156.139 66.2301ZM155.452 65.7729C155.23 64.6802 154.665 64.1339 153.755 64.1339C153.29 64.1339 152.891 64.29 152.569 64.591C152.248 64.9032 152.037 65.2935 151.937 65.7729H155.452Z" fill="white"/>
<path fill-rule="evenodd" clip-rule="evenodd" d="M162.203 66.4195C162.203 67.2334 161.948 67.9024 161.427 68.4487C160.917 68.9951 160.252 69.2627 159.443 69.2627C158.988 69.2627 158.467 69.1289 157.891 68.8613V71.9386H157.314V63.6989H157.891V64.0111C158.401 63.7324 158.922 63.5874 159.476 63.5874C160.296 63.5874 160.962 63.8438 161.46 64.3679C161.948 64.9142 162.203 65.5944 162.203 66.4195ZM161.56 66.4752C161.56 65.7951 161.35 65.2376 160.928 64.8027C160.507 64.3679 159.964 64.156 159.288 64.156C158.822 64.156 158.356 64.301 157.891 64.5797V68.2926C158.378 68.5825 158.877 68.7275 159.365 68.7275C160.03 68.7275 160.562 68.5156 160.962 68.1031C161.361 67.7017 161.56 67.1553 161.56 66.4752Z" fill="white"/>
<path fill-rule="evenodd" clip-rule="evenodd" d="M167.824 69.1623H167.247V66.6536H163.999V69.1623H163.423V63.7212H163.999V66.1073H167.247V63.7212H167.824V69.1623Z" fill="white"/>
<path fill-rule="evenodd" clip-rule="evenodd" d="M174.564 66.453C174.564 67.2781 174.309 67.9582 173.788 68.4823C173.278 69.0174 172.602 69.2739 171.782 69.2739C170.984 69.2739 170.329 68.9951 169.819 68.4488C169.309 67.9025 169.055 67.2223 169.055 66.4195C169.055 65.5945 169.309 64.9143 169.819 64.3903C170.329 63.8662 170.984 63.5986 171.804 63.5986C172.635 63.5986 173.312 63.8662 173.811 64.3903C174.309 64.9255 174.564 65.6056 174.564 66.453ZM173.955 66.4307C173.955 65.7729 173.755 65.2377 173.356 64.8028C172.957 64.368 172.436 64.1561 171.782 64.1561C171.15 64.1561 170.629 64.3791 170.241 64.814C169.853 65.26 169.653 65.7951 169.653 66.4418C169.653 67.0774 169.853 67.6237 170.252 68.0809C170.651 68.5269 171.161 68.761 171.782 68.761C172.414 68.761 172.935 68.538 173.334 68.0809C173.755 67.6237 173.955 67.0774 173.955 66.4307Z" fill="white"/>
<path fill-rule="evenodd" clip-rule="evenodd" d="M179.564 61.8257C179.487 62.6619 179.01 63.0856 178.123 63.0856C177.713 63.0856 177.369 62.9741 177.103 62.7623C176.837 62.5393 176.671 62.2271 176.615 61.8257H177.192C177.236 62.3163 177.547 62.5616 178.123 62.5616C178.611 62.5616 178.899 62.3163 179.021 61.8257H179.564ZM180.418 69.1623H179.841V64.6689L176.261 69.1734H175.806V63.7212H176.383V68.2591L179.963 63.7212H180.418V69.1623Z" fill="white"/>
<path fill-rule="evenodd" clip-rule="evenodd" d="M189.054 66.5311C189.054 67.3562 188.81 68.0252 188.322 68.5269C187.835 69.0287 187.192 69.274 186.371 69.274C186.005 69.274 185.507 69.1848 184.886 68.9952V68.4043C185.462 68.6273 185.939 68.7276 186.327 68.7276C186.959 68.7276 187.469 68.5381 187.857 68.159C188.256 67.7799 188.444 67.2782 188.444 66.6538H186.028V66.1074H188.422C188.356 65.5276 188.145 65.0593 187.768 64.7025C187.402 64.3346 186.937 64.1562 186.371 64.1562C185.928 64.1562 185.462 64.2789 184.986 64.5241V63.8886C185.429 63.6991 185.895 63.6099 186.382 63.6099C187.214 63.6099 187.868 63.8886 188.334 64.4461C188.81 64.9924 189.054 65.6949 189.054 66.5311Z" fill="white"/>
<path fill-rule="evenodd" clip-rule="evenodd" d="M194.664 69.1623H194.087V64.2675H190.839V69.1623H190.263V63.7212H194.664V69.1623Z" fill="white"/>
<path fill-rule="evenodd" clip-rule="evenodd" d="M200.739 69.1623H200.151V64.6689L196.571 69.1623H196.116V63.7212H196.693V68.2592L200.273 63.7212H200.739V69.1623Z" fill="white"/>
<path fill-rule="evenodd" clip-rule="evenodd" d="M206.703 69.1622H206.127V64.2563H203.267V66.9546C203.267 68.4932 202.735 69.2626 201.67 69.2626L201.504 68.7943C201.959 68.7497 202.269 68.5713 202.457 68.2814C202.613 68.0472 202.69 67.6793 202.69 67.1887V63.71H206.703V69.1622Z" fill="white"/>
<path fill-rule="evenodd" clip-rule="evenodd" d="M211.415 69.1623H210.839V66.6647H209.819C209.575 66.6647 209.375 66.7651 209.198 66.9658C209.098 67.0884 208.91 67.4006 208.621 67.9135L207.934 69.1623H207.335L208.134 67.6459C208.466 66.9992 208.754 66.609 208.965 66.464C208.233 66.2968 207.868 65.8731 207.868 65.1707C207.868 64.6578 208.067 64.2787 208.455 64.0334C208.788 63.8215 209.22 63.7212 209.763 63.7212H211.415V69.1623ZM210.839 66.1184V64.2564H209.885C208.943 64.2564 208.477 64.5574 208.477 65.1707C208.477 65.7951 208.943 66.1073 209.885 66.1073H210.839V66.1184Z" fill="white"/>
<path fill-rule="evenodd" clip-rule="evenodd" d="M217.834 70.9909H217.28V69.1623H212.834V63.7212H213.422V68.616H216.659V63.7212H217.247V68.616H217.834V70.9909Z" fill="white"/>
<path fill-rule="evenodd" clip-rule="evenodd" d="M223.322 69.1623H222.745V64.6689L219.164 69.1623H218.699V63.7212H219.286V68.2592L222.867 63.7212H223.322V69.1623Z" fill="white"/>
<path fill-rule="evenodd" clip-rule="evenodd" d="M229.408 69.1623H228.832V64.6689L225.24 69.1623H224.785V63.7212H225.362V68.2592L228.954 63.7212H229.408V69.1623Z" fill="white"/>
</g>
<defs>
<clipPath id="clip0_701_267">
<rect width="238" height="80" fill="white"/>
</clipPath>
</defs>
</svg>
