<svg width="203" height="68" viewBox="0 0 203 68" fill="none" xmlns="http://www.w3.org/2000/svg">
<g clip-path="url(#clip0_233_789)">
<path fill-rule="evenodd" clip-rule="evenodd" d="M30.3063 37.0658C28.9068 33.3128 27.46 29.8535 25.9754 26.6976C25.096 28.394 24.1599 30.4506 23.1859 32.8768C22.628 34.2795 22.0985 35.6726 21.5974 37.0658H30.3063ZM36.3864 45.1784C36.4621 45.3774 36.4999 45.5859 36.4999 45.785C36.4999 46.8464 35.9704 47.3772 34.9113 47.3772C34.1643 47.3772 33.6631 47.017 33.4173 46.2967C32.8405 44.2875 32.0272 41.8424 30.9776 38.9423H20.9354C19.848 42.1267 19.1388 44.6098 18.7889 46.3631C18.6566 47.036 18.25 47.3772 17.5691 47.3772C16.7181 47.3772 16.2926 46.9507 16.2926 46.0977L16.3399 45.7471C16.9545 43.681 17.2949 42.5532 17.3422 42.3636C17.8623 40.8662 18.4958 39.1508 19.2428 37.208C20.16 34.7533 21.0584 32.5356 21.9283 30.5643C22.3444 29.6071 22.7983 28.593 23.2711 27.5221C23.9141 26.1005 24.472 25.0106 24.9164 24.2619C25.5216 23.2383 25.9849 22.7266 26.3064 22.7266C26.8832 22.7266 27.5451 23.4658 28.2732 24.9537C31.4126 31.351 34.1076 38.0988 36.3864 45.1784Z" fill="#F6B1B5"/>
<path fill-rule="evenodd" clip-rule="evenodd" d="M52.7547 44.1455C53.8232 44.1455 54.3527 44.6857 54.3527 45.7661C54.3527 46.8371 53.8232 47.3773 52.7547 47.3773H39.5731C38.6086 47.3773 38.1263 46.8845 38.1263 45.9083V24.5274C38.1263 23.5607 38.6086 23.0679 39.5731 23.0679C40.5376 23.0679 41.0199 23.5512 41.0199 24.5274L41.0388 43.0082C41.0388 44.155 41.2184 44.8563 41.5872 45.1027C42.0789 45.4344 43.4784 45.605 45.7856 45.605C47.6674 45.605 49.0196 45.4913 49.8517 45.2733C50.4663 45.1027 51.2228 44.7805 52.1306 44.2971C52.3386 44.1929 52.5372 44.1455 52.7547 44.1455Z" fill="#F6B1B5"/>
<path fill-rule="evenodd" clip-rule="evenodd" d="M70.5507 44.1455C71.6192 44.1455 72.1488 44.6857 72.1488 45.7661C72.1488 46.8371 71.6192 47.3773 70.5507 47.3773H57.3692C56.4046 47.3773 55.9224 46.8845 55.9224 45.9083V24.5274C55.9224 23.5607 56.4046 23.0679 57.3692 23.0679C58.3337 23.0679 58.8159 23.5512 58.8159 24.5274L58.8348 43.0082C58.8348 44.155 59.0145 44.8563 59.3833 45.1027C59.875 45.4344 61.2745 45.605 63.5817 45.605C65.4634 45.605 66.8156 45.4913 67.6478 45.2733C68.2624 45.1027 69.0189 44.7805 69.9266 44.2971C70.1347 44.1929 70.3332 44.1455 70.5507 44.1455Z" fill="#F6B1B5"/>
<path fill-rule="evenodd" clip-rule="evenodd" d="M92.9991 43.0368C93.0464 43.2737 93.0653 43.4254 93.0653 43.4727C93.0653 43.6528 93.037 43.8139 92.9802 43.9656C92.9235 44.1172 92.81 44.3068 92.6493 44.5437C92.394 44.9133 91.855 45.3303 91.0323 45.7947C90.0962 46.316 89.0182 46.733 87.7984 47.0552C86.3421 47.4532 84.867 47.6428 83.3824 47.6428C79.7986 47.6428 76.9051 46.5718 74.6924 44.4394C72.4703 42.307 71.364 39.5207 71.364 36.0804C71.364 32.2516 72.5554 29.1146 74.9383 26.6599C77.3306 24.2148 80.3849 22.9922 84.0822 22.9922C85.2642 22.9922 86.3894 23.1154 87.4769 23.3618C88.5548 23.5987 89.4532 23.9399 90.1813 24.3948C90.673 24.6792 91.0796 25.0109 91.4105 25.4184C91.6658 25.6838 91.7982 26.006 91.7982 26.3756C91.7982 27.2949 91.3443 27.7498 90.4271 27.7498C90.0489 27.7498 89.7179 27.6171 89.4532 27.3518C88.9236 26.6978 88.2333 26.1387 87.3729 25.6553C86.257 25.0393 85.0561 24.7265 83.7418 24.7265C81.7844 24.7265 80.0729 25.3331 78.6167 26.5462C77.3401 27.6266 76.3472 29.0861 75.6286 30.9437C74.995 32.6307 74.6735 34.4029 74.6735 36.27C74.6735 39.0373 75.6002 41.3403 77.4441 43.2074C79.3069 45.0839 81.5669 46.0127 84.2335 46.0127C86.257 46.0127 87.7511 45.5862 88.6967 44.7332C89.6517 43.8708 90.1245 42.4871 90.1245 40.5916C90.1245 38.7625 89.9732 37.6821 89.6706 37.3504C89.5761 37.2366 89.4059 37.1419 89.1884 37.0661H85.7653C85.1223 37.0661 84.8103 36.7343 84.8103 36.0899C84.8103 35.4549 85.1223 35.1327 85.7653 35.1327H91.4389C92.375 35.1327 92.8478 35.6065 92.8478 36.5448L92.914 42.3544C92.914 42.5819 92.9518 42.8093 92.9991 43.0368Z" fill="#F6B1B5"/>
<path fill-rule="evenodd" clip-rule="evenodd" d="M110.275 44.1455C111.344 44.1455 111.873 44.6857 111.873 45.7661C111.873 46.8371 111.344 47.3773 110.275 47.3773H97.103C96.1385 47.3773 95.6562 46.8845 95.6562 45.9083V24.5274C95.6562 23.5607 96.1385 23.0679 97.103 23.0679C98.0675 23.0679 98.5498 23.5512 98.5498 24.5274L98.5687 43.0082C98.5687 44.155 98.7483 44.8563 99.1171 45.1027C99.6088 45.4344 101.008 45.605 103.316 45.605C105.197 45.605 106.549 45.4913 107.382 45.2733C107.996 45.1027 108.753 44.7805 109.66 44.2971C109.85 44.1929 110.058 44.1455 110.275 44.1455Z" fill="#F6B1B5"/>
<path fill-rule="evenodd" clip-rule="evenodd" d="M126.473 37.0658C125.074 33.3128 123.627 29.8535 122.142 26.6976C121.263 28.394 120.327 30.4506 119.353 32.8768C118.795 34.2795 118.265 35.6726 117.764 37.0658H126.473ZM132.553 45.1784C132.629 45.3774 132.667 45.5859 132.667 45.785C132.667 46.8464 132.137 47.3772 131.078 47.3772C130.331 47.3772 129.83 47.017 129.584 46.2967C129.007 44.2875 128.194 41.8424 127.145 38.9423H117.102C116.015 42.1267 115.306 44.6098 114.956 46.3631C114.823 47.036 114.417 47.3772 113.736 47.3772C112.885 47.3772 112.459 46.9507 112.459 46.0977L112.507 45.7471C113.121 43.681 113.462 42.5532 113.509 42.3636C114.029 40.8662 114.663 39.1508 115.41 37.208C116.327 34.7533 117.225 32.5356 118.095 30.5643C118.511 29.6071 118.965 28.593 119.438 27.5221C120.081 26.1005 120.639 25.0106 121.083 24.2619C121.688 23.2383 122.152 22.7266 122.473 22.7266C123.05 22.7266 123.712 23.4658 124.44 24.9537C127.579 31.351 130.284 38.0988 132.553 45.1784Z" fill="#F6B1B5"/>
<path fill-rule="evenodd" clip-rule="evenodd" d="M147.531 43.3968C149.574 41.5677 150.595 38.8856 150.595 35.3316C150.595 33.3982 150.33 31.7491 149.801 30.3655C149.139 28.6785 148.089 27.3801 146.662 26.4608C144.997 25.4183 142.794 24.897 140.08 24.897C138.87 24.897 138.104 25.1055 137.773 25.532C137.404 26.0153 137.206 27.0958 137.168 28.7827V42.8471C137.206 43.9939 137.433 44.7521 137.858 45.1312C138.321 45.5387 139.258 45.7377 140.676 45.7377C143.503 45.7472 145.792 44.9606 147.531 43.3968ZM150.52 26.5082C152.798 28.6974 153.943 31.7207 153.943 35.578C153.943 39.3215 152.713 42.2311 150.236 44.3351C147.862 46.3632 144.657 47.3773 140.61 47.3773H135.73C134.766 47.3773 134.284 46.8845 134.284 45.9083V24.698C134.284 23.7787 134.738 23.2953 135.645 23.248L141.064 23.229C145.073 23.229 148.222 24.3189 150.52 26.5082Z" fill="#F6B1B5"/>
<path fill-rule="evenodd" clip-rule="evenodd" d="M173.696 45.4629C173.734 45.605 173.743 45.7472 173.743 45.8609C173.743 46.875 173.242 47.3773 172.249 47.3773C171.54 47.3773 171.077 47.0361 170.84 46.3537L170.793 46.1547C169.753 42.4965 167.417 38.7719 163.786 34.962C163.2 35.5401 162.472 36.2414 161.621 37.028C161.091 37.5209 160.515 38.0421 159.909 38.5918L159.89 46.1073C159.767 46.9508 159.285 47.3678 158.463 47.3678C157.498 47.3678 157.016 46.875 157.016 45.8988V24.698C157.016 23.7218 157.498 23.229 158.463 23.229C159.427 23.229 159.909 23.7218 159.909 24.698V36.0519C163.058 33.2371 166.547 29.1618 170.368 23.8166L170.519 23.6176C170.727 23.3617 171.02 23.229 171.379 23.229C172.155 23.229 172.552 23.6271 172.552 24.4421C172.552 24.7833 172.429 25.0771 172.183 25.314C169.583 28.6121 167.427 31.1521 165.706 32.9149C167.115 34.3933 168.505 36.0898 169.857 37.9947C171.644 40.5631 172.93 43.0461 173.696 45.4629Z" fill="#F6B1B5"/>
<path fill-rule="evenodd" clip-rule="evenodd" d="M184.826 45.8134C187.568 45.8134 189.658 44.7519 191.086 42.629C192.324 40.7714 192.948 38.3263 192.948 35.303C192.948 32.0712 192.23 29.5123 190.802 27.6074C189.355 25.7024 187.417 24.7452 184.977 24.7452C183.067 24.7452 181.469 25.2759 180.192 26.3469C179.048 27.3041 178.207 28.612 177.639 30.28C177.138 31.7774 176.883 33.4454 176.883 35.2935C176.883 38.4589 177.611 40.9989 179.067 42.9228C180.504 44.8562 182.424 45.8134 184.826 45.8134ZM184.826 22.9824C188.183 22.9824 190.925 24.1292 193.052 26.4132C195.18 28.6973 196.248 31.6732 196.248 35.3125C196.248 38.9233 195.189 41.8803 193.071 44.1833C190.953 46.4863 188.239 47.633 184.92 47.633C181.611 47.633 178.906 46.4768 176.779 44.1643C174.651 41.8518 173.583 38.9044 173.583 35.3125C173.583 31.7111 174.642 28.7541 176.741 26.4417C178.831 24.1292 181.535 22.9824 184.826 22.9824Z" fill="#F6B1B5"/>
<path fill-rule="evenodd" clip-rule="evenodd" d="M202.783 28.6973C202.924 28.9248 203 29.0954 203 29.2376C203 29.3134 202.981 29.3797 202.934 29.4366C202.82 29.5598 202.679 29.6167 202.518 29.6167C202.291 29.6167 202.036 29.4934 201.723 29.247C201.657 29.1902 200.201 28.0434 197.345 25.8162C196.494 25.2097 196.069 24.6695 196.069 24.1861C196.069 23.9208 196.192 23.6649 196.456 23.4279C196.627 23.2858 197.166 23.21 198.073 23.21C198.735 23.21 200.305 25.0391 202.783 28.6973Z" fill="#F6B1B5"/>
<path fill-rule="evenodd" clip-rule="evenodd" d="M44.5185 1.706C57.3597 5.9329 65.974 17.1162 67.5815 29.7116C65.7849 18.443 57.9176 8.54865 46.3435 4.73876C29.8618 -0.701244 12.0941 8.29276 6.67585 24.8213C1.2576 41.3498 10.2313 59.1482 26.7224 64.5788C39.8094 68.891 53.7097 64.1049 61.5865 53.6798C53.2085 65.517 37.8142 71.0613 23.3372 66.2847C5.54113 60.4372 -4.14174 41.2266 1.70202 23.3902C7.55525 5.55381 26.7224 -4.151 44.5185 1.706Z" fill="#F6B1B5"/>
<path fill-rule="evenodd" clip-rule="evenodd" d="M68.3948 58.6456C67.8653 58.8067 67.4397 58.8826 67.1277 58.8826C66.4374 58.8826 65.8795 58.6646 65.4635 58.2476C65.0474 57.8211 64.8394 57.2525 64.8394 56.5511C64.8394 55.8403 65.0379 55.2433 65.4445 54.7694C65.8511 54.2955 66.409 54.0586 67.1088 54.0586C67.5248 54.0586 67.922 54.1344 68.3002 54.2955V54.8357C67.8842 54.6272 67.4965 54.523 67.1182 54.523C66.5698 54.523 66.1348 54.7125 65.8228 55.0821C65.5107 55.4612 65.35 55.9256 65.35 56.4943C65.35 57.0724 65.5107 57.5368 65.8322 57.8874C66.1537 58.2381 66.5982 58.4182 67.1655 58.4182C67.487 58.4182 67.8936 58.3234 68.3948 58.1433V58.6456Z" fill="#F6B1B5"/>
<path fill-rule="evenodd" clip-rule="evenodd" d="M73.3497 56.2955H69.7186C69.7186 56.8926 69.8699 57.3854 70.1725 57.7835C70.5035 58.21 70.9574 58.4185 71.5436 58.4185C72.1772 58.4185 72.754 58.1815 73.2741 57.7171V58.2668C72.7634 58.6838 72.1677 58.8829 71.5058 58.8829C70.8061 58.8829 70.2387 58.6459 69.8132 58.1721C69.3971 57.7171 69.1891 57.139 69.1891 56.4282C69.1891 55.7648 69.3782 55.2056 69.7564 54.7507C70.1347 54.2958 70.6548 54.0684 71.2978 54.0684C71.9124 54.0684 72.4136 54.2863 72.7918 54.7128C73.1606 55.1393 73.3497 55.67 73.3497 56.2955ZM72.7634 55.907C72.5743 54.9782 72.0921 54.5138 71.3167 54.5138C70.9195 54.5138 70.5791 54.6465 70.3049 54.9024C70.0307 55.1677 69.851 55.4994 69.7659 55.907H72.7634Z" fill="#F6B1B5"/>
<path fill-rule="evenodd" clip-rule="evenodd" d="M77.5103 54.6275H75.8744V58.788H75.3732V54.6275H73.7468V54.1631H77.5103V54.6275Z" fill="#F6B1B5"/>
<path fill-rule="evenodd" clip-rule="evenodd" d="M81.3116 57.4709C81.3116 58.3523 80.7632 58.7882 79.6568 58.7882H78.1533V54.1538H78.645V56.163H79.6568C80.7632 56.1725 81.3116 56.6084 81.3116 57.4709ZM80.801 57.4709C80.801 56.9117 80.3849 56.6369 79.5623 56.6369H78.645V58.3333H79.5623C79.9499 58.3333 80.2336 58.2859 80.4133 58.1912C80.6781 58.0585 80.801 57.8215 80.801 57.4709Z" fill="#F6B1B5"/>
<path fill-rule="evenodd" clip-rule="evenodd" d="M88.4981 58.6456C87.9686 58.8067 87.543 58.8826 87.231 58.8826C86.5407 58.8826 85.9828 58.6646 85.5667 58.2476C85.1507 57.8211 84.9427 57.2525 84.9427 56.5511C84.9427 55.8403 85.1412 55.2433 85.5478 54.7694C85.9544 54.2955 86.5123 54.0586 87.2121 54.0586C87.6281 54.0586 88.0253 54.1344 88.4035 54.2955V54.8357C87.9875 54.6272 87.5998 54.523 87.2215 54.523C86.6731 54.523 86.2381 54.7125 85.9261 55.0821C85.614 55.4612 85.4533 55.9256 85.4533 56.4943C85.4533 57.0724 85.614 57.5368 85.9355 57.8874C86.257 58.2381 86.7015 58.4182 87.2688 58.4182C87.5903 58.4182 87.9969 58.3234 88.4981 58.1433V58.6456Z" fill="#F6B1B5"/>
<path fill-rule="evenodd" clip-rule="evenodd" d="M92.6776 54.6275H91.0417V58.788H90.55V54.6275H88.9236V54.1631H92.6776V54.6275Z" fill="#F6B1B5"/>
<path fill-rule="evenodd" clip-rule="evenodd" d="M96.9895 54.1633L93.5287 61.1671H93.0275L94.6445 57.8974L92.6965 54.1633L93.2072 54.1538L94.8998 57.3951L96.4789 54.1633H96.9895Z" fill="#F6B1B5"/>
<path fill-rule="evenodd" clip-rule="evenodd" d="M102.077 60.3421H101.604V58.7973H97.6041V60.3421H97.1313V58.3329H97.5663C97.8784 57.8875 98.1053 57.48 98.2566 57.1103C98.4741 56.5607 98.5876 55.992 98.5876 55.4044V54.1724H101.585V58.3424H102.086V60.3421H102.077ZM101.074 58.3234V54.6178H99.0698V55.4613C99.0698 56.5133 98.7483 57.4705 98.1053 58.3234H101.074Z" fill="#F6B1B5"/>
<path fill-rule="evenodd" clip-rule="evenodd" d="M106.748 58.788H106.256V54.9687L103.202 58.788H102.805V54.1631H103.297V58.0204L106.36 54.1631H106.748V58.788Z" fill="#F6B1B5"/>
<path fill-rule="evenodd" clip-rule="evenodd" d="M111.221 52.5518C111.155 53.2626 110.748 53.6227 109.991 53.6227C109.642 53.6227 109.348 53.5279 109.121 53.3479C108.895 53.1583 108.753 52.8929 108.705 52.5518H109.197C109.235 52.9688 109.5 53.1773 109.991 53.1773C110.407 53.1773 110.653 52.9688 110.757 52.5518H111.221ZM111.939 58.7879H111.448V54.9685L108.393 58.7973H108.006V54.1629H108.497V58.0202L111.552 54.1629H111.939V58.7879Z" fill="#F6B1B5"/>
<path fill-rule="evenodd" clip-rule="evenodd" d="M119.892 58.7882H119.4V54.6182H116.96V56.9117C116.96 58.2196 116.507 58.8735 115.599 58.8735L115.457 58.4755C115.845 58.4376 116.109 58.2859 116.27 58.0395C116.403 57.8405 116.469 57.5277 116.469 57.1107V54.1538H119.892V58.7882Z" fill="#F6B1B5"/>
<path fill-rule="evenodd" clip-rule="evenodd" d="M124.781 58.3993C124.544 58.5699 124.393 58.6742 124.327 58.7121C124.128 58.8258 123.967 58.8921 123.844 58.8921C123.703 58.8921 123.608 58.8258 123.57 58.6836C123.551 58.5036 123.532 58.3804 123.523 58.314C123.031 58.7026 122.558 58.8921 122.086 58.8921C121.736 58.8921 121.443 58.7784 121.197 58.5604C120.951 58.3424 120.828 58.0581 120.828 57.7169C120.828 57.1009 121.168 56.6555 121.84 56.3522C122.331 56.1342 122.889 56.03 123.532 56.03V55.6983C123.532 55.2907 123.485 55.0159 123.391 54.8643C123.249 54.6273 122.956 54.5136 122.502 54.5136C122.048 54.5136 121.584 54.7031 121.102 55.0728V54.5799C121.282 54.4473 121.509 54.3335 121.774 54.2293C122.048 54.125 122.284 54.0776 122.492 54.0776C123.513 54.0776 124.024 54.5136 124.024 55.395V58.2098C124.024 58.3424 124.052 58.4088 124.1 58.4088C124.185 58.4088 124.308 58.3614 124.45 58.2666C124.487 58.2477 124.601 58.1624 124.799 58.0107V58.3993H124.781ZM123.513 57.8781V56.428C122.729 56.428 122.133 56.5891 121.745 56.9114C121.461 57.1483 121.31 57.4231 121.31 57.7264C121.31 57.9633 121.405 58.1624 121.594 58.3045C121.764 58.4277 121.982 58.4941 122.227 58.4941C122.634 58.4846 123.06 58.2761 123.513 57.8781Z" fill="#F6B1B5"/>
<path fill-rule="evenodd" clip-rule="evenodd" d="M128.355 57.5653C128.355 58.0297 128.166 58.3804 127.778 58.6078C127.466 58.7974 127.05 58.8827 126.549 58.8827C126.057 58.8827 125.584 58.7689 125.14 58.5415V58.0486C125.65 58.2951 126.133 58.4183 126.587 58.4183C126.918 58.4183 127.192 58.3519 127.419 58.2382C127.693 58.0866 127.835 57.8686 127.835 57.5653C127.835 57.262 127.712 57.0346 127.475 56.8735C127.267 56.7313 127.012 56.665 126.691 56.665H126.057V56.2006H126.501C126.766 56.2006 127.012 56.1247 127.23 55.9826C127.475 55.8215 127.598 55.613 127.598 55.3571C127.598 54.8074 127.249 54.5325 126.549 54.5325C126.312 54.5325 126.085 54.5705 125.868 54.6558C125.726 54.7031 125.537 54.7979 125.282 54.9306V54.4662C125.745 54.2008 126.199 54.0776 126.662 54.0776C127.078 54.0776 127.409 54.1819 127.674 54.3904C127.967 54.6178 128.118 54.9306 128.118 55.3286C128.118 55.8025 127.844 56.1342 127.305 56.3332C128.005 56.5133 128.355 56.9208 128.355 57.5653Z" fill="#F6B1B5"/>
<path fill-rule="evenodd" clip-rule="evenodd" d="M133.177 56.2955H129.546C129.546 56.8926 129.698 57.3854 130 57.7835C130.331 58.21 130.785 58.4185 131.371 58.4185C132.005 58.4185 132.582 58.1815 133.102 57.7171V58.2668C132.591 58.6838 131.995 58.8829 131.333 58.8829C130.634 58.8829 130.066 58.6459 129.641 58.1721C129.225 57.7171 129.017 57.139 129.017 56.4282C129.017 55.7648 129.206 55.2056 129.584 54.7507C129.962 54.2958 130.482 54.0684 131.125 54.0684C131.74 54.0684 132.241 54.2863 132.619 54.7128C132.998 55.1393 133.177 55.67 133.177 56.2955ZM132.591 55.907C132.402 54.9782 131.92 54.5138 131.144 54.5138C130.747 54.5138 130.407 54.6465 130.133 54.9024C129.858 55.1677 129.679 55.4994 129.594 55.907H132.591Z" fill="#F6B1B5"/>
<path fill-rule="evenodd" clip-rule="evenodd" d="M138.35 56.4566C138.35 57.1484 138.132 57.7171 137.688 58.1814C137.253 58.6458 136.686 58.8733 135.995 58.8733C135.608 58.8733 135.163 58.7596 134.671 58.5321V61.1479H134.18V54.1441H134.671V54.4095C135.106 54.1725 135.551 54.0493 136.024 54.0493C136.723 54.0493 137.291 54.2673 137.716 54.7127C138.132 55.1771 138.35 55.7552 138.35 56.4566ZM137.801 56.504C137.801 55.9258 137.622 55.452 137.262 55.0823C136.903 54.7127 136.44 54.5327 135.863 54.5327C135.466 54.5327 135.069 54.6559 134.671 54.8928V58.0488C135.087 58.2952 135.513 58.4184 135.929 58.4184C136.496 58.4184 136.95 58.2383 137.291 57.8876C137.631 57.5465 137.801 57.0821 137.801 56.504Z" fill="#F6B1B5"/>
<path fill-rule="evenodd" clip-rule="evenodd" d="M143.144 58.788H142.652V56.6556H139.882V58.788H139.39V54.1631H139.882V56.1912H142.652V54.1631H143.144V58.788Z" fill="#F6B1B5"/>
<path fill-rule="evenodd" clip-rule="evenodd" d="M148.893 56.4848C148.893 57.1861 148.676 57.7642 148.231 58.2097C147.796 58.6646 147.219 58.8826 146.52 58.8826C145.839 58.8826 145.281 58.6456 144.846 58.1812C144.411 57.7169 144.194 57.1387 144.194 56.4564C144.194 55.755 144.411 55.1769 144.846 54.7315C145.281 54.286 145.839 54.0586 146.539 54.0586C147.248 54.0586 147.825 54.286 148.25 54.7315C148.676 55.1864 148.893 55.7645 148.893 56.4848ZM148.373 56.4658C148.373 55.9067 148.203 55.4518 147.862 55.0821C147.522 54.7125 147.078 54.5325 146.52 54.5325C145.981 54.5325 145.536 54.722 145.205 55.0916C144.874 55.4707 144.704 55.9256 144.704 56.4753C144.704 57.0155 144.874 57.4799 145.215 57.8685C145.555 58.2476 145.99 58.4466 146.52 58.4466C147.059 58.4466 147.503 58.2571 147.844 57.8685C148.203 57.4799 148.373 57.0155 148.373 56.4658Z" fill="#F6B1B5"/>
<path fill-rule="evenodd" clip-rule="evenodd" d="M153.158 52.5518C153.092 53.2626 152.685 53.6227 151.928 53.6227C151.579 53.6227 151.285 53.5279 151.059 53.3479C150.832 53.1583 150.69 52.8929 150.642 52.5518H151.134C151.172 52.9688 151.437 53.1773 151.928 53.1773C152.345 53.1773 152.59 52.9688 152.694 52.5518H153.158ZM153.886 58.7879H153.394V54.9685L150.34 58.7973H149.952V54.1629H150.444V58.0202L153.498 54.1629H153.886V58.7879Z" fill="#F6B1B5"/>
<path fill-rule="evenodd" clip-rule="evenodd" d="M161.252 56.5514C161.252 57.2527 161.044 57.8214 160.628 58.2479C160.212 58.6744 159.663 58.8829 158.964 58.8829C158.652 58.8829 158.226 58.807 157.697 58.6459V58.1436C158.188 58.3332 158.595 58.4185 158.926 58.4185C159.465 58.4185 159.9 58.2574 160.231 57.9351C160.571 57.6129 160.732 57.1864 160.732 56.6557H158.671V56.1913H160.713C160.656 55.6985 160.477 55.3004 160.155 54.9971C159.843 54.6844 159.446 54.5328 158.964 54.5328C158.585 54.5328 158.188 54.637 157.782 54.8455V54.3053C158.16 54.1442 158.557 54.0684 158.973 54.0684C159.682 54.0684 160.24 54.3053 160.637 54.7792C161.044 55.2436 161.252 55.8406 161.252 56.5514Z" fill="#F6B1B5"/>
<path fill-rule="evenodd" clip-rule="evenodd" d="M166.037 58.788H165.545V54.6275H162.774V58.788H162.283V54.1631H166.037V58.788Z" fill="#F6B1B5"/>
<path fill-rule="evenodd" clip-rule="evenodd" d="M171.219 58.788H170.717V54.9687L167.663 58.788H167.275V54.1631H167.767V58.0204L170.821 54.1631H171.219V58.788Z" fill="#F6B1B5"/>
<path fill-rule="evenodd" clip-rule="evenodd" d="M176.306 58.7882H175.814V54.6182H173.375V56.9117C173.375 58.2196 172.921 58.8735 172.013 58.8735L171.871 58.4755C172.259 58.4376 172.524 58.2859 172.684 58.0395C172.817 57.8405 172.883 57.5277 172.883 57.1107V54.1538H176.306V58.7882Z" fill="#F6B1B5"/>
<path fill-rule="evenodd" clip-rule="evenodd" d="M180.325 58.788H179.833V56.6651H178.963C178.755 56.6651 178.585 56.7504 178.433 56.921C178.348 57.0252 178.188 57.2906 177.942 57.7266L177.356 58.788H176.845L177.526 57.4991C177.809 56.9494 178.055 56.6177 178.235 56.4945C177.611 56.3524 177.299 55.9922 177.299 55.3951C177.299 54.9592 177.469 54.637 177.8 54.4285C178.084 54.2484 178.452 54.1631 178.916 54.1631H180.325V58.788ZM179.833 56.2007V54.618H179.02C178.216 54.618 177.819 54.8739 177.819 55.3951C177.819 55.9259 178.216 56.1912 179.02 56.1912H179.833V56.2007Z" fill="#F6B1B5"/>
<path fill-rule="evenodd" clip-rule="evenodd" d="M185.8 60.3423H185.327V58.788H181.535V54.1631H182.036V58.3236H184.797V54.1631H185.299V58.3236H185.8V60.3423Z" fill="#F6B1B5"/>
<path fill-rule="evenodd" clip-rule="evenodd" d="M190.48 58.788H189.989V54.9687L186.934 58.788H186.537V54.1631H187.038V58.0204L190.093 54.1631H190.48V58.788Z" fill="#F6B1B5"/>
<path fill-rule="evenodd" clip-rule="evenodd" d="M195.672 58.788H195.18V54.9687L192.116 58.788H191.729V54.1631H192.22V58.0204L195.284 54.1631H195.672V58.788Z" fill="#F6B1B5"/>
</g>
<defs>
<clipPath id="clip0_233_789">
<rect width="203" height="68" fill="white"/>
</clipPath>
</defs>
</svg>
