<svg width="25" height="26" viewBox="0 0 25 26" fill="none" xmlns="http://www.w3.org/2000/svg">
<path fill-rule="evenodd" clip-rule="evenodd" d="M23.7703 0H14.7703C14.218 0 13.7703 0.447715 13.7703 1C13.7703 1.55228 14.218 2 14.7703 2L21.3561 2L15.6252 7.73096C14.0225 6.6386 12.0858 6 10 6C4.47715 6 0 10.4772 0 16C0 21.5228 4.47715 26 10 26C15.5228 26 20 21.5228 20 16C20 13.2855 18.9184 10.8236 17.1627 9.0218L22.7703 3.41421V10C22.7703 10.5523 23.218 11 23.7703 11C24.3226 11 24.7703 10.5523 24.7703 10V1C24.7703 0.447715 24.3226 0 23.7703 0ZM18 16C18 20.4183 14.4183 24 10 24C5.58172 24 2 20.4183 2 16C2 11.5817 5.58172 8 10 8C14.4183 8 18 11.5817 18 16Z" fill="#9B9B9B"/>
</svg>
