<svg width="22" height="16" viewBox="0 0 22 16" fill="none" xmlns="http://www.w3.org/2000/svg">
<path fill-rule="evenodd" clip-rule="evenodd" d="M22 8C22 7.4237 21.5234 6.95652 20.9355 6.95652H1.06452C0.476599 6.95652 0 7.4237 0 8C0 8.5763 0.476599 9.04348 1.06452 9.04348H20.9355C21.5234 9.04348 22 8.5763 22 8Z" fill="black"/>
<path fill-rule="evenodd" clip-rule="evenodd" d="M22 1.04348C22 0.467181 21.5234 0 20.9355 0H1.06452C0.476599 0 0 0.467181 0 1.04348C0 1.61978 0.476599 2.08696 1.06452 2.08696H20.9355C21.5234 2.08696 22 1.61978 22 1.04348Z" fill="black"/>
<path fill-rule="evenodd" clip-rule="evenodd" d="M22 14.9565C22 14.3802 21.5234 13.913 20.9355 13.913H1.06452C0.476599 13.913 0 14.3802 0 14.9565C0 15.5328 0.476599 16 1.06452 16H20.9355C21.5234 16 22 15.5328 22 14.9565Z" fill="black"/>
</svg>
