<svg width="22" height="22" viewBox="0 0 22 22" fill="none" xmlns="http://www.w3.org/2000/svg">
<path fill-rule="evenodd" clip-rule="evenodd" d="M2.83366 8.54801C5.07863 13.4393 9.0735 17.328 14.0397 19.4351L14.0553 19.4418L15.0147 19.8696C16.2364 20.4143 17.6724 20.0275 18.4556 18.9427L20.0563 16.7261C20.1541 16.5907 20.1289 16.4024 19.999 16.2975L17.2046 14.0419C17.0657 13.9297 16.8614 13.9558 16.7551 14.0993L15.6675 15.5677C15.4034 15.9244 14.9264 16.0483 14.5223 15.8653C10.8089 14.1838 7.82484 11.198 6.14432 7.48245C5.96142 7.07806 6.08526 6.60079 6.44167 6.33652L7.90922 5.24831C8.05262 5.14198 8.07872 4.93759 7.96665 4.7986L5.71198 2.0022C5.60719 1.87223 5.4191 1.84698 5.28378 1.94472L3.05642 3.55361C1.96517 4.34185 1.58087 5.79073 2.13789 7.01667L2.83292 8.54638C2.83317 8.54692 2.83341 8.54746 2.83366 8.54801ZM13.2962 21.1673C7.90013 18.8755 3.56 14.6489 1.12068 9.33299L1.11921 9.32978L0.422728 7.79686C-0.505624 5.75364 0.134875 3.33884 1.95362 2.02511L4.18098 0.416222C5.1282 -0.26798 6.44483 -0.0912705 7.17836 0.818509L9.43304 3.61491C10.2175 4.58788 10.0348 6.0186 9.03101 6.76292L8.19008 7.38648C9.61057 10.1444 11.8619 12.397 14.6182 13.8183L15.2414 12.9769C15.9853 11.9725 17.4152 11.7897 18.3876 12.5746L21.182 14.8303C22.0915 15.5645 22.2679 16.8824 21.5835 17.8302L19.9828 20.0468C18.6773 21.8547 16.2841 22.4993 14.248 21.5916L13.2962 21.1673Z" fill="#D1A19C"/>
</svg>
