<svg width="18" height="20" viewBox="0 0 18 20" fill="none" xmlns="http://www.w3.org/2000/svg">
<path fill-rule="evenodd" clip-rule="evenodd" d="M3 3.97217C3 2.17724 4.45507 0.722168 6.25 0.722168C7.25522 0.722168 8.15385 1.17854 8.75 1.89538C9.34615 1.17854 10.2448 0.722168 11.25 0.722168C13.0449 0.722168 14.5 2.17724 14.5 3.97217C14.5 4.61649 14.3125 5.21702 13.9891 5.72217H14.75C16.2688 5.72217 17.5 6.95338 17.5 8.47217V10.4722C17.5 11.2763 16.9576 11.9538 16.2187 12.1587C16.3628 13.9853 16.2793 15.8238 15.9695 17.6319C15.7845 18.7115 14.9076 19.5386 13.819 19.6603L12.9045 19.7625C10.1434 20.0711 7.35656 20.0711 4.59548 19.7625L3.68101 19.6603C2.59239 19.5386 1.71552 18.7115 1.53052 17.6319C1.22069 15.8238 1.13724 13.9853 1.28131 12.1587C0.542399 11.9538 0 11.2763 0 10.4722V8.47217C0 6.95338 1.23122 5.72217 2.75 5.72217H3.51091C3.1875 5.21702 3 4.61649 3 3.97217ZM8 3.97217C8 3.00567 7.2165 2.22217 6.25 2.22217C5.2835 2.22217 4.5 3.00567 4.5 3.97217C4.5 4.93867 5.2835 5.72217 6.25 5.72217C7.2165 5.72217 8 4.93867 8 3.97217ZM11.25 5.72217C12.2165 5.72217 13 4.93867 13 3.97217C13 3.00567 12.2165 2.22217 11.25 2.22217C10.2835 2.22217 9.5 3.00567 9.5 3.97217C9.5 4.93867 10.2835 5.72217 11.25 5.72217ZM1.5 8.47217C1.5 7.78181 2.05964 7.22217 2.75 7.22217H8V10.7222H1.75C1.61193 10.7222 1.5 10.6102 1.5 10.4722V8.47217ZM9.5 12.2222H14.719C14.8593 13.9428 14.7829 15.6752 14.491 17.3785C14.4189 17.7996 14.0769 18.1221 13.6524 18.1696L12.7379 18.2718C11.6616 18.3921 10.5812 18.4635 9.5 18.4861V12.2222ZM9.5 10.7222H15.75C15.8881 10.7222 16 10.6102 16 10.4722V8.47217C16 7.78181 15.4404 7.22217 14.75 7.22217H9.5V10.7222ZM8 12.2222V18.4861C6.91882 18.4635 5.83842 18.3921 4.76209 18.2718L3.84762 18.1696C3.42308 18.1221 3.08112 17.7996 3.00897 17.3785C2.71708 15.6752 2.64074 13.9428 2.78103 12.2222H8Z" fill="#242424"/>
</svg>
