<svg width="29" height="29" viewBox="0 0 29 29" fill="none" xmlns="http://www.w3.org/2000/svg">
<path fill-rule="evenodd" clip-rule="evenodd" d="M12.1635 1.74001C13.2046 -0.102792 15.7954 -0.102787 16.8365 1.74001L20.0246 7.38346C20.3185 7.90365 20.8264 8.25863 21.4053 8.34845L26.6994 9.16976C29.0071 9.52777 29.8166 12.5206 28.0194 14.05L24.162 17.3325C23.6206 17.7932 23.366 18.52 23.4976 19.2294L24.5781 25.0577C25.0013 27.3408 22.6679 29.1147 20.6659 28.0319L15.399 25.1834C14.8363 24.879 14.1637 24.879 13.601 25.1834L8.33415 28.0319C6.33205 29.1147 3.99868 27.3408 4.42193 25.0577L5.50244 19.2294C5.63396 18.52 5.37939 17.7932 4.83797 17.3325L0.980621 14.0499C-0.81659 12.5206 -0.0071114 9.52777 2.30059 9.16976L7.59466 8.34845C8.17361 8.25863 8.68154 7.90365 8.97541 7.38346L12.1635 1.74001ZM14.8338 2.93364C14.6851 2.67038 14.3149 2.67038 14.1662 2.93364L10.9781 8.57709C10.3316 9.7215 9.21416 10.5025 7.94046 10.7001L2.64639 11.5214C2.31671 11.5725 2.20108 12.0001 2.45782 12.2185L6.31517 15.5011C7.50628 16.5147 8.06634 18.1135 7.777 19.6743L6.69649 25.5026C6.63603 25.8288 6.96937 26.0822 7.25538 25.9275L12.5223 23.079C13.7602 22.4095 15.2398 22.4095 16.4777 23.079L21.7446 25.9275C22.0306 26.0822 22.364 25.8288 22.3035 25.5026L21.223 19.6743C20.9337 18.1135 21.4937 16.5147 22.6848 15.5011L26.5422 12.2185C26.7989 12.0001 26.6833 11.5725 26.3536 11.5214L21.0595 10.7001C19.7858 10.5025 18.6684 9.7215 18.0219 8.57709L14.8338 2.93364Z" fill="#3C3C3C"/>
</svg>
