<svg width="60" height="61" viewBox="0 0 60 61" fill="none" xmlns="http://www.w3.org/2000/svg">
<rect x="0.5" y="1.36783" width="59" height="59" rx="29.5" fill="white"/>
<rect x="0.5" y="1.36783" width="59" height="59" rx="29.5" stroke="#9B9B9B"/>
<path d="M38.3135 30.5133C38.3135 30.2409 38.1992 29.9772 37.9971 29.7838L32.2227 24.0094C31.9941 23.7897 31.7568 23.693 31.5107 23.693C30.9482 23.693 30.5439 24.0885 30.5439 24.6247C30.5439 24.9059 30.6582 25.1432 30.834 25.319L32.8115 27.3229L35.3604 29.652L33.3213 29.529H22.6689C22.0801 29.529 21.6758 29.9333 21.6758 30.5133C21.6758 31.0846 22.0801 31.4889 22.6689 31.4889H33.3213L35.3604 31.3659L32.8115 33.695L30.834 35.6989C30.6582 35.8747 30.5439 36.112 30.5439 36.3932C30.5439 36.9294 30.9482 37.3249 31.5107 37.3249C31.7568 37.3249 31.9941 37.2282 32.2051 37.026L37.9971 31.234C38.1992 31.0407 38.3135 30.777 38.3135 30.5133Z" fill="#242424"/>
</svg>
