<svg width="22" height="20" viewBox="0 0 22 20" fill="none" xmlns="http://www.w3.org/2000/svg">
<path fill-rule="evenodd" clip-rule="evenodd" d="M5.28242 11.9305C5.32564 11.9456 5.36927 11.9564 5.41285 11.963C5.46038 12.0791 5.5218 12.2294 5.59344 12.4052C5.76828 12.8341 6.00387 13.4142 6.24704 14.0194C6.74296 15.2536 7.2432 16.5258 7.35368 16.89C7.49044 17.3401 7.63501 17.6462 7.79283 17.8551C7.87443 17.9632 7.96881 18.0575 8.07925 18.129C8.13484 18.1649 8.19356 18.1944 8.25486 18.2164C8.25756 18.2174 8.26026 18.2183 8.26295 18.2193C8.57894 18.3433 8.86702 18.2916 9.04739 18.2284C9.14391 18.1946 9.22199 18.1538 9.27733 18.1207C9.30555 18.1038 9.32939 18.0881 9.34841 18.0748L9.35289 18.0716L12.1435 16.2615L15.3669 18.832C15.4145 18.8699 15.4664 18.9017 15.5213 18.9267C15.9086 19.1024 16.2836 19.1637 16.6363 19.1136C16.9885 19.0636 17.2681 18.9097 17.4762 18.7365C17.68 18.5669 17.8182 18.3769 17.9042 18.2358C17.9481 18.1637 17.9812 18.0999 18.0044 18.0511C18.0161 18.0266 18.0255 18.0054 18.0328 17.9884L18.0421 17.966L18.0456 17.9573L18.0471 17.9535L18.0477 17.9518L18.0483 17.9502C18.0653 17.9061 18.0783 17.8605 18.0871 17.814L21.0298 2.38219C21.0393 2.33284 21.044 2.28265 21.044 2.23233C21.044 1.78042 20.8803 1.3507 20.4954 1.08995C20.1664 0.86708 19.7999 0.857487 19.5682 0.875773C19.3184 0.895499 19.0876 0.959656 18.9328 1.01092C18.8522 1.0376 18.7846 1.06334 18.7359 1.08298C18.7114 1.09285 18.6914 1.10132 18.6764 1.10778L18.6652 1.11269L2.16194 7.84654L2.1598 7.84734C2.14928 7.85132 2.13578 7.85656 2.11973 7.86306C2.08777 7.876 2.04496 7.89424 1.99494 7.91781C1.8974 7.9638 1.76057 8.03566 1.62015 8.13567C1.39582 8.29546 0.879913 8.73309 0.966786 9.4554C1.03609 10.0316 1.41563 10.3856 1.64687 10.5557C1.77384 10.6492 1.89447 10.716 1.98232 10.7595C2.02308 10.7797 2.10769 10.8155 2.14441 10.831L2.15367 10.8349L5.28242 11.9305ZM19.2427 2.53124L19.2404 2.53228C19.2322 2.536 19.2239 2.53956 19.2156 2.54296L2.69232 9.28499C2.68369 9.28851 2.675 9.29186 2.66625 9.29504L2.65705 9.29867C2.64648 9.30295 2.62869 9.31046 2.60635 9.32099C2.59368 9.32696 2.58047 9.33348 2.56699 9.34047C2.5855 9.35132 2.60323 9.36074 2.61897 9.36854C2.63409 9.37602 2.64562 9.38114 2.65193 9.38384L5.75499 10.4704C5.81178 10.4903 5.86473 10.5167 5.91333 10.5484L16.1594 4.30968L16.169 4.30379C16.1765 4.2992 16.1863 4.29331 16.198 4.2864C16.2214 4.27268 16.2534 4.25443 16.2915 4.23425C16.3626 4.19661 16.4764 4.14073 16.6046 4.09952C16.6938 4.07084 16.9569 3.99002 17.2414 4.08492C17.417 4.1435 17.5987 4.26942 17.717 4.48275C17.7757 4.58873 17.807 4.69519 17.8221 4.79264C17.8624 4.94617 17.856 5.09776 17.8245 5.22864C17.7566 5.51057 17.5662 5.73049 17.3929 5.89869C17.2445 6.04291 15.3236 7.96949 13.4286 9.87133C12.4836 10.8197 11.5482 11.7588 10.8491 12.4608L10.3899 12.9219L16.1879 17.5454C16.3209 17.595 16.3995 17.5924 16.4359 17.5872C16.4792 17.5811 16.5146 17.5637 16.5509 17.5336C16.5914 17.4999 16.6268 17.4544 16.6533 17.4109L16.6544 17.4091L19.5085 2.44205C19.4661 2.45264 19.4233 2.46525 19.382 2.47891C19.3352 2.49439 19.2967 2.50914 19.2711 2.51944C19.2585 2.52454 19.2494 2.52841 19.2444 2.53055L19.2427 2.53124ZM10.888 15.2603L9.73129 14.3379L9.451 16.1924L10.888 15.2603ZM8.67014 12.5075L9.82045 11.3524C10.5196 10.6504 11.4551 9.71122 12.4002 8.7627L13.3604 7.79909L6.92249 11.7191L6.95704 11.8038C7.1325 12.2342 7.36914 12.8169 7.6136 13.4253C7.7964 13.8802 7.98755 14.3593 8.16166 14.8027L8.44113 12.9536C8.46807 12.7754 8.5518 12.621 8.67014 12.5075Z" fill="#29A0DC"/>
</svg>
