<svg width="24" height="15" viewBox="0 0 24 15" fill="none" xmlns="http://www.w3.org/2000/svg">
<path fill-rule="evenodd" clip-rule="evenodd" d="M23.155 12.115C22.6111 11.0195 21.8944 10.0188 21.0325 9.15128C20.7392 8.81032 20.3953 8.47383 20.1268 8.21116L20.0893 8.17446C19.9508 8.03895 19.8364 7.92644 19.7428 7.8295C20.9213 6.19074 21.93 4.43595 22.753 2.59222L22.7862 2.51783L22.8095 2.43976C22.9176 2.07687 23.0422 1.3868 22.6015 0.76317C22.146 0.118589 21.4166 0.00234216 20.9282 0.00234216H18.6811C18.2127 -0.0191345 17.7488 0.107507 17.3558 0.364979C16.9598 0.624395 16.6569 1.00278 16.4902 1.4451C16.0063 2.59779 15.4008 3.6942 14.6847 4.71598V2.08269C14.6847 1.7423 14.6527 1.17289 14.2882 0.692291C13.8518 0.116854 13.2207 0.00234216 12.7826 0.00234216H9.21708C8.75771 -0.00828225 8.31094 0.155974 7.9676 0.462589C7.616 0.776592 7.40052 1.21521 7.36687 1.68543L7.36369 1.72997V1.77463C7.36369 2.26011 7.55606 2.61822 7.70975 2.84344C7.77856 2.94427 7.85216 3.03606 7.89865 3.09403L7.90938 3.10741C7.95895 3.16923 7.99204 3.21049 8.02525 3.25566C8.1126 3.37448 8.23824 3.55768 8.27379 4.03174V5.5047C7.6591 4.49423 7.01066 3.14957 6.52276 1.71344L6.51527 1.6914L6.50697 1.66965C6.38532 1.35103 6.1902 0.887431 5.79941 0.532664C5.34288 0.118212 4.8029 0.00234216 4.31182 0.00234216H2.03187C1.53506 0.00234216 0.936134 0.118566 0.489237 0.589993C0.049773 1.05358 0 1.60907 0 1.90442V2.03755L0.0280389 2.16769C0.659544 5.09881 1.96076 7.84368 3.82946 10.1877C4.67668 11.5237 5.82468 12.6436 7.18213 13.4575C8.56124 14.2845 10.1171 14.7719 11.7215 14.8797L11.7633 14.8825H11.8053C12.5311 14.8825 13.2878 14.8199 13.8568 14.4407C14.6244 13.9292 14.6847 13.1436 14.6847 12.7521V11.6142C14.8817 11.7734 15.1261 11.9878 15.4253 12.2759C15.787 12.6379 16.075 12.9516 16.322 13.2254L16.4538 13.372L16.4546 13.3728C16.6464 13.5864 16.8352 13.7967 17.0071 13.9695C17.2232 14.1867 17.4896 14.4261 17.8245 14.6029C18.1871 14.7944 18.5677 14.881 18.972 14.881H21.2535C21.7341 14.881 22.4235 14.7673 22.9082 14.2054C23.4364 13.593 23.3961 12.8424 23.23 12.303L23.2001 12.206L23.155 12.115ZM17.4357 12.2206C17.1789 11.9359 16.8692 11.5984 16.4778 11.2071L16.4746 11.2039C15.1185 9.89645 14.4848 9.66863 14.0368 9.66863C13.7985 9.66863 13.5348 9.69536 13.3637 9.90854C13.2829 10.0091 13.2405 10.1305 13.2167 10.257C13.1929 10.3833 13.1847 10.5316 13.1847 10.7005V12.7521C13.1847 13.0069 13.1428 13.1139 13.025 13.1925C12.868 13.2971 12.5325 13.3819 11.8137 13.3825C10.4493 13.2895 9.12641 12.8744 7.95349 12.1711C6.77817 11.4664 5.78709 10.4925 5.06187 9.32972L5.05398 9.31706L5.04464 9.30544C3.30337 7.13813 2.09003 4.59571 1.5003 1.8791C1.5035 1.74814 1.53187 1.67045 1.57784 1.62195C1.62521 1.57198 1.73999 1.50234 2.03187 1.50234H4.31182C4.56544 1.50234 4.6967 1.55751 4.79117 1.64327C4.89827 1.7405 4.99116 1.90561 5.10401 2.20042C5.66362 3.8464 6.42038 5.38568 7.137 6.51751C7.49518 7.08323 7.84769 7.55409 8.16529 7.88685C8.32383 8.05295 8.47932 8.19063 8.6277 8.28848C8.77132 8.38319 8.93414 8.45789 9.10158 8.45789C9.18994 8.45789 9.29328 8.4488 9.39279 8.40475C9.49983 8.35735 9.58291 8.27837 9.64158 8.17253C9.74536 7.9853 9.77379 7.70798 9.77379 7.3447V3.98099L9.77329 3.9731C9.72146 3.15476 9.47439 2.69443 9.23381 2.36718C9.18108 2.29546 9.12909 2.23068 9.08359 2.17399L9.07113 2.15846C9.02117 2.09616 8.98142 2.04582 8.94876 1.99795C8.88891 1.91024 8.86571 1.84909 8.86381 1.78356C8.87162 1.70578 8.90828 1.63361 8.96675 1.58139C9.02744 1.52719 9.10686 1.49897 9.18816 1.50234H12.7826C12.9887 1.50234 13.0581 1.55262 13.093 1.59868C13.1423 1.6637 13.1847 1.79893 13.1847 2.08269V6.6113C13.1847 7.14924 13.4327 7.51339 13.7928 7.51339C14.2072 7.51339 14.5059 7.26195 15.0283 6.7396L15.037 6.73088L15.0448 6.72135C16.2156 5.29356 17.1725 3.70298 17.8847 1.99943L17.8892 1.98666C17.9428 1.83613 18.0441 1.70726 18.1778 1.6197C18.3114 1.53215 18.47 1.49072 18.6294 1.50175L18.6381 1.50234H20.9282C21.2405 1.50234 21.3433 1.58183 21.3765 1.62884C21.4118 1.67885 21.4364 1.78604 21.3764 1.99625C20.5553 3.83266 19.5399 5.57579 18.348 7.19636L18.3405 7.20784C18.2248 7.38478 18.0979 7.58056 18.0795 7.80539C18.0598 8.0468 18.1643 8.26625 18.347 8.5015C18.4802 8.69844 18.7549 8.96733 19.0336 9.24012L19.0599 9.26583C19.3521 9.55182 19.6686 9.86162 19.9227 10.1616L19.9295 10.1695L19.9369 10.1769C20.6944 10.9325 21.3243 11.806 21.802 12.7632C21.8783 13.0238 21.8316 13.157 21.7723 13.2257C21.703 13.3061 21.5476 13.381 21.2535 13.381H18.972C18.7938 13.381 18.6563 13.3459 18.5249 13.2765C18.388 13.2042 18.2472 13.0892 18.0706 12.9117C17.9284 12.7687 17.773 12.5957 17.5834 12.3848C17.5364 12.3325 17.4873 12.2777 17.4357 12.2206Z" fill="#1C63ED"/>
</svg>
