<svg width="24" height="24" viewBox="0 0 24 24" fill="none" xmlns="http://www.w3.org/2000/svg">
<path fill-rule="evenodd" clip-rule="evenodd" d="M7.91049 2.77623C11.5912 -0.925409 17.5588 -0.925409 21.2395 2.77623C24.9202 6.47786 24.9202 12.4794 21.2395 16.181C17.8176 19.6224 12.419 19.8644 8.71913 16.9069L7.00956 18.6262L9.92527 21.5585C10.3854 22.0212 10.3854 22.7714 9.92527 23.2341C9.46519 23.6968 8.71924 23.6968 8.25915 23.2341L5.34343 20.3018L2.01119 23.653C1.5511 24.1157 0.805152 24.1157 0.345065 23.653C-0.115022 23.1903 -0.115022 22.4401 0.345065 21.9774L3.67731 18.6262L0.761596 15.6939C0.301509 15.2312 0.301509 14.481 0.761596 14.0183C1.22168 13.5556 1.96763 13.5556 2.42772 14.0183L5.34343 16.9506L7.07 15.2142C5.79011 13.5244 5.14997 11.5001 5.14997 9.47863C5.14997 7.05467 6.07037 4.62681 7.91049 2.77623ZM19.5734 4.45183C16.8128 1.6756 12.3371 1.6756 9.57662 4.45183C8.19612 5.84017 7.50622 7.65745 7.50622 9.47863C7.50622 11.2998 8.19612 13.1171 9.57662 14.5054C12.3371 17.2817 16.8128 17.2817 19.5734 14.5054C22.3339 11.7292 22.3339 7.22805 19.5734 4.45183Z" fill="#242424"/>
</svg>
