<svg width="35" height="35" viewBox="0 0 35 35" fill="none" xmlns="http://www.w3.org/2000/svg">
<rect width="35" height="35" rx="17.5" fill="white"/>
<path d="M22.3489 17.2932C22.3489 17.1343 22.2822 16.9805 22.1643 16.8677L18.7959 13.4993C18.6626 13.3711 18.5242 13.3147 18.3806 13.3147C18.0525 13.3147 17.8167 13.5454 17.8167 13.8582C17.8167 14.0222 17.8833 14.1606 17.9858 14.2632L19.1394 15.4321L20.6262 16.7908L19.4368 16.719H13.2229C12.8794 16.719 12.6436 16.9548 12.6436 17.2932C12.6436 17.6265 12.8794 17.8623 13.2229 17.8623H19.4368L20.6262 17.7905L19.1394 19.1492L17.9858 20.3181C17.8833 20.4207 17.8167 20.5591 17.8167 20.7231C17.8167 21.0359 18.0525 21.2666 18.3806 21.2666C18.5242 21.2666 18.6626 21.2102 18.7856 21.0923L22.1643 17.7136C22.2822 17.6008 22.3489 17.447 22.3489 17.2932Z" fill="#C27E77"/>
</svg>
