<svg width="120" height="20" viewBox="0 0 120 20" fill="none" xmlns="http://www.w3.org/2000/svg">
<path d="M8.2577 3.09115C9.02272 1.73386 10.9773 1.73386 11.7423 3.09115L12.7246 4.83389C13.01 5.34025 13.5016 5.69739 14.0713 5.81235L16.0323 6.20802C17.5596 6.51618 18.1636 8.37507 17.1091 9.52207L15.7552 10.9948C15.3618 11.4227 15.1741 12.0006 15.2408 12.578L15.4705 14.5653C15.6493 16.113 14.0681 17.2619 12.6514 16.6135L10.8323 15.7809C10.3038 15.539 9.6962 15.539 9.16767 15.7809L7.34863 16.6135C5.93192 17.2619 4.35065 16.113 4.52953 14.5653L4.7592 12.578C4.82594 12.0006 4.63817 11.4227 4.2448 10.9948L2.89089 9.52208C1.83644 8.37507 2.44043 6.51618 3.96769 6.20802L5.92868 5.81235C6.49845 5.69739 6.99001 5.34025 7.27542 4.83389L8.2577 3.09115Z" fill="#C27E77"/>
<path d="M33.2577 3.09115C34.0227 1.73386 35.9773 1.73386 36.7423 3.09115L37.7246 4.83389C38.01 5.34025 38.5016 5.69739 39.0713 5.81235L41.0323 6.20802C42.5596 6.51618 43.1636 8.37507 42.1091 9.52207L40.7552 10.9948C40.3618 11.4227 40.1741 12.0006 40.2408 12.578L40.4705 14.5653C40.6493 16.113 39.0681 17.2619 37.6514 16.6135L35.8323 15.7809C35.3038 15.539 34.6962 15.539 34.1677 15.7809L32.3486 16.6135C30.9319 17.2619 29.3507 16.113 29.5295 14.5653L29.7592 12.578C29.8259 12.0006 29.6382 11.4227 29.2448 10.9948L27.8909 9.52208C26.8364 8.37507 27.4404 6.51618 28.9677 6.20802L30.9287 5.81235C31.4984 5.69739 31.99 5.34025 32.2754 4.83389L33.2577 3.09115Z" fill="#C27E77"/>
<path d="M58.2577 3.09115C59.0227 1.73386 60.9773 1.73386 61.7423 3.09115L62.7246 4.83389C63.01 5.34025 63.5016 5.69739 64.0713 5.81235L66.0323 6.20802C67.5596 6.51618 68.1636 8.37507 67.1091 9.52207L65.7552 10.9948C65.3618 11.4227 65.1741 12.0006 65.2408 12.578L65.4705 14.5653C65.6493 16.113 64.0681 17.2619 62.6514 16.6135L60.8323 15.7809C60.3038 15.539 59.6962 15.539 59.1677 15.7809L57.3486 16.6135C55.9319 17.2619 54.3507 16.113 54.5295 14.5653L54.7592 12.578C54.8259 12.0006 54.6382 11.4227 54.2448 10.9948L52.8909 9.52208C51.8364 8.37507 52.4404 6.51618 53.9677 6.20802L55.9287 5.81235C56.4984 5.69739 56.99 5.34025 57.2754 4.83389L58.2577 3.09115Z" fill="#C27E77"/>
<path d="M83.2577 3.09115C84.0227 1.73386 85.9773 1.73386 86.7423 3.09115L87.7246 4.83389C88.01 5.34025 88.5016 5.69739 89.0713 5.81235L91.0323 6.20802C92.5596 6.51618 93.1636 8.37507 92.1091 9.52207L90.7552 10.9948C90.3618 11.4227 90.1741 12.0006 90.2408 12.578L90.4705 14.5653C90.6493 16.113 89.0681 17.2619 87.6514 16.6135L85.8323 15.7809C85.3038 15.539 84.6962 15.539 84.1677 15.7809L82.3486 16.6135C80.9319 17.2619 79.3507 16.113 79.5295 14.5653L79.7592 12.578C79.8259 12.0006 79.6382 11.4227 79.2448 10.9948L77.8909 9.52208C76.8364 8.37507 77.4404 6.51618 78.9677 6.20802L80.9287 5.81235C81.4984 5.69739 81.99 5.34025 82.2754 4.83389L83.2577 3.09115Z" fill="#C27E77"/>
<path d="M108.258 3.09115C109.023 1.73386 110.977 1.73386 111.742 3.09115L112.725 4.83389C113.01 5.34025 113.502 5.69739 114.071 5.81235L116.032 6.20802C117.56 6.51618 118.164 8.37507 117.109 9.52207L115.755 10.9948C115.362 11.4227 115.174 12.0006 115.241 12.578L115.47 14.5653C115.649 16.113 114.068 17.2619 112.651 16.6135L110.832 15.7809C110.304 15.539 109.696 15.539 109.168 15.7809L107.349 16.6135C105.932 17.2619 104.351 16.113 104.53 14.5653L104.759 12.578C104.826 12.0006 104.638 11.4227 104.245 10.9948L102.891 9.52208C101.836 8.37507 102.44 6.51618 103.968 6.20802L105.929 5.81235C106.498 5.69739 106.99 5.34025 107.275 4.83389L108.258 3.09115Z" fill="#C27E77"/>
</svg>
