<svg width="21" height="16" viewBox="0 0 21 16" fill="none" xmlns="http://www.w3.org/2000/svg">
<path fill-rule="evenodd" clip-rule="evenodd" d="M17.8098 0.668088L10.5 0.5L3.19024 0.668088C1.83573 0.699235 0.688857 1.69295 0.443946 3.04764C-0.147982 6.32179 -0.147982 9.67821 0.443946 12.9524C0.688858 14.307 1.83573 15.3008 3.19024 15.3319L10.5 15.5L17.8098 15.3319C19.1643 15.3008 20.3111 14.307 20.5561 12.9524C21.148 9.67821 21.148 6.32179 20.5561 3.04764C20.3111 1.69295 19.1643 0.699235 17.8098 0.668088ZM3.22476 2.21937L10.5 2.05208L17.7752 2.21937C18.4064 2.23389 18.9408 2.69691 19.0549 3.32813C19.2108 4.19085 19.3233 5.05963 19.3921 5.93108H1.6079C1.67674 5.05963 1.78915 4.19085 1.94512 3.32813C2.05924 2.69691 2.59362 2.23389 3.22476 2.21937ZM1.52632 7.99999C1.52632 9.56375 1.66592 11.1275 1.94512 12.6719C2.05924 13.3031 2.59362 13.7661 3.22476 13.7806L10.5 13.9479L17.7752 13.7806C18.4064 13.7661 18.9408 13.3031 19.0549 12.6719C19.3341 11.1275 19.4737 9.56375 19.4737 7.99999H1.52632Z" fill="#3C3C3C"/>
</svg>
