<svg width="20" height="20" viewBox="0 0 20 20" fill="none" xmlns="http://www.w3.org/2000/svg">
<path d="M11.5 7.2502C11.5 6.83599 11.1642 6.5002 10.75 6.5002H4.75C4.33579 6.5002 4 6.83599 4 7.2502C4 7.66441 4.33579 8.0002 4.75 8.0002H10.75C11.1642 8.0002 11.5 7.66441 11.5 7.2502Z" fill="#3C3C3C"/>
<path d="M10.5 10.2502C10.5 9.83599 10.1642 9.5002 9.75 9.5002H4.75C4.33579 9.5002 4 9.83599 4 10.2502C4 10.6644 4.33579 11.0002 4.75 11.0002H9.75C10.1642 11.0002 10.5 10.6644 10.5 10.2502Z" fill="#3C3C3C"/>
<path d="M10.75 12.5002C11.1642 12.5002 11.5 12.836 11.5 13.2502C11.5 13.6644 11.1642 14.0002 10.75 14.0002H4.75C4.33579 14.0002 4 13.6644 4 13.2502C4 12.836 4.33579 12.5002 4.75 12.5002H10.75Z" fill="#3C3C3C"/>
<path fill-rule="evenodd" clip-rule="evenodd" d="M4 19.2502H17C18.5188 19.2502 19.75 18.019 19.75 16.5002V11.0002C19.75 10.586 19.4142 10.2502 19 10.2502H15.75V2.4434C15.75 1.01999 14.1411 0.192026 12.9828 1.01936L12.8078 1.1444C12.0273 1.70189 10.9701 1.70002 10.1859 1.13991C8.88206 0.208573 7.11794 0.208573 5.81407 1.13991C5.02992 1.70002 3.9727 1.70189 3.19221 1.1444L3.01717 1.01936C1.8589 0.192026 0.25 1.01999 0.25 2.4434V15.5002C0.25 17.5713 1.92893 19.2502 4 19.2502ZM6.68593 2.36051C7.46825 1.80171 8.53175 1.80171 9.31407 2.36051C10.6161 3.29053 12.3739 3.29764 13.6796 2.365L13.8547 2.23996C14.0202 2.12177 14.25 2.24005 14.25 2.4434V16.5002C14.25 16.9503 14.3581 17.3752 14.5499 17.7502H4C2.75736 17.7502 1.75 16.7428 1.75 15.5002V2.4434C1.75 2.24005 1.97984 2.12177 2.14531 2.23996L2.32036 2.365C3.62605 3.29764 5.3839 3.29053 6.68593 2.36051Z" fill="#3C3C3C"/>
</svg>
