<svg width="18" height="18" viewBox="0 0 18 18" fill="none" xmlns="http://www.w3.org/2000/svg">
<path d="M3.61461 4.13236C4.92813 2.81432 6.74326 2 8.75 2C12.7541 2 16 5.24594 16 9.25C16 13.2541 12.7541 16.5 8.75 16.5C4.74594 16.5 1.5 13.2541 1.5 9.25C1.5 8.83579 1.16421 8.5 0.75 8.5C0.335786 8.5 0 8.83579 0 9.25C0 14.0825 3.91751 18 8.75 18C13.5825 18 17.5 14.0825 17.5 9.25C17.5 4.41751 13.5825 0.5 8.75 0.5C6.32851 0.5 4.13558 1.48462 2.55213 3.07352C2.52668 3.09906 2.50345 3.12597 2.48245 3.15401L1.22488 1.89645C1.08769 1.75926 0.883533 1.71382 0.701112 1.77986C0.518691 1.84591 0.390942 2.01152 0.373378 2.20473L0.0198239 6.09382C0.00638932 6.2416 0.0592897 6.38771 0.164217 6.49264C0.269145 6.59757 0.415258 6.65047 0.563038 6.63703L4.45213 6.28348C4.64534 6.26591 4.81095 6.13817 4.87699 5.95575C4.94304 5.77332 4.8976 5.56916 4.76041 5.43198L3.5323 4.20386C3.56101 4.18235 3.58854 4.15852 3.61461 4.13236Z" fill="#3C3C3C"/>
<path d="M9.5 4.25C9.5 3.83579 9.16421 3.5 8.75 3.5C8.33579 3.5 8 3.83579 8 4.25V9.25C8 9.50859 8.13321 9.74895 8.3525 9.886L11.3525 11.761C11.7038 11.9805 12.1665 11.8738 12.386 11.5225C12.6055 11.1712 12.4988 10.7085 12.1475 10.489L9.5 8.83431V4.25Z" fill="#3C3C3C"/>
</svg>
