<svg width="21" height="26" viewBox="0 0 21 26" fill="none" xmlns="http://www.w3.org/2000/svg">
<path fill-rule="evenodd" clip-rule="evenodd" d="M1.5 6.75C1.5 3.84905 3.84644 1.5 6.73768 1.5C9.52424 1.5 11.8206 1.54869 13.75 1.87554V10.75H14.0341C11.8169 11.5301 9.17772 12 6.73768 12C3.84644 12 1.5 9.65095 1.5 6.75ZM15.25 10.2719V2.20991C16.2052 2.48231 17.0597 2.85761 17.8339 3.37387C18.3508 3.71848 18.6621 4.34815 18.8322 5.07552C18.9986 5.78698 19 6.46279 19 6.75C19 7.29618 18.7094 7.90222 18.0363 8.5418C17.3802 9.16525 16.423 9.75729 15.25 10.2719ZM6.73768 0C3.01511 0 0 3.02353 0 6.75C0 9.11587 1.21532 11.1984 3.05542 12.4037L4.00082 22.9854C4.12801 24.409 5.32083 25.5 6.75005 25.5C8.17676 25.5 9.36836 24.4127 9.49868 22.992L10.3969 13.2002C12.3104 12.895 14.1799 12.3694 15.7713 11.681C17.0742 11.1173 18.2287 10.4282 19.0696 9.62914C19.9073 8.83306 20.5 7.86067 20.5 6.75V6.74415C20.5 6.43922 20.5 5.61989 20.2928 4.73388C20.0879 3.85807 19.6492 2.78138 18.6661 2.12585C15.6527 0.116688 11.7088 0 6.73768 0ZM8.87271 13.395C8.15441 13.464 7.43865 13.5 6.73768 13.5C6.00122 13.5 5.29244 13.3817 4.62922 13.1629L5.49487 22.852C5.55294 23.5019 6.09753 24 6.75005 24C7.40142 24 7.94546 23.5036 8.00496 22.8549L8.87271 13.395ZM4.5 6.25C4.5 5.2835 5.2835 4.5 6.25 4.5C7.2165 4.5 8 5.2835 8 6.25C8 7.2165 7.2165 8 6.25 8C5.2835 8 4.5 7.2165 4.5 6.25ZM6.25 3C4.45507 3 3 4.45507 3 6.25C3 8.04493 4.45507 9.5 6.25 9.5C8.04493 9.5 9.5 8.04493 9.5 6.25C9.5 4.45507 8.04493 3 6.25 3Z" fill="#3C3C3C"/>
</svg>
