<svg width="20" height="19" viewBox="0 0 20 19" fill="none" xmlns="http://www.w3.org/2000/svg">
<path fill-rule="evenodd" clip-rule="evenodd" d="M4.89056 0.5C4.34349 0.5 3.83262 0.772053 3.52916 1.22498L0.17334 6.23371C-0.0321038 6.54035 -0.0566722 6.93301 0.108962 7.26264C1.94534 10.9172 4.4974 14.1695 7.61511 16.8286L9.25198 18.2247C9.68242 18.5918 10.3176 18.5918 10.748 18.2247L12.3849 16.8286C15.5026 14.1695 18.0547 10.9172 19.891 7.26264C20.0567 6.93301 20.0321 6.54035 19.8267 6.23371L16.4708 1.22498C16.1674 0.772053 15.6565 0.5 15.1094 0.5H4.89056ZM4.69607 1.99906C4.73942 1.93436 4.81241 1.89549 4.89056 1.89549H7.07821L5.28763 6.17155C5.24638 6.27005 5.21526 6.37163 5.19428 6.47479C4.53621 6.42605 3.87871 6.36729 3.222 6.29851L1.9077 6.16085L4.69607 1.99906ZM1.8458 7.55757C3.52258 10.6183 5.73673 13.3584 8.38551 15.6469L5.46329 7.89301C4.66638 7.8385 3.87021 7.76961 3.07519 7.68634L1.8458 7.55757ZM6.99389 7.97999L10 15.9565L13.0061 7.97999C11.0031 8.07066 8.99693 8.07066 6.99389 7.97999ZM14.5367 7.89301L11.6145 15.6469C14.2633 13.3584 16.4774 10.6183 18.1542 7.55757L16.9248 7.68634C16.1298 7.76961 15.3336 7.8385 14.5367 7.89301ZM18.0923 6.16085L16.778 6.29851C16.1213 6.36729 15.4638 6.42605 14.8057 6.47479C14.7847 6.37163 14.7536 6.27005 14.7124 6.17155L12.9218 1.89549H15.1094C15.1876 1.89549 15.2606 1.93436 15.3039 1.99906L18.0923 6.16085ZM13.3581 6.56579C11.1209 6.6814 8.87912 6.6814 6.64187 6.56579L8.59754 1.89549H11.4025L13.3581 6.56579Z" fill="#3C3C3C"/>
</svg>
